<svg xmlns="http://www.w3.org/2000/svg" version="1.1" xmlns:xlink="http://www.w3.org/1999/xlink" xmlns:svgjs="http://svgjs.dev/svgjs" width="1500" height="1500" viewBox="0 0 1500 1500"><rect width="1500" height="1500" fill="#ffffff"></rect><g transform="matrix(0.6666666666666666,0,0,0.6666666666666666,249.39393939393938,446.61616423411914)"><svg viewBox="0 0 396 241" data-background-color="#ffffff" preserveAspectRatio="xMidYMid meet" height="912" width="1500" xmlns="http://www.w3.org/2000/svg" xmlns:xlink="http://www.w3.org/1999/xlink"><g id="tight-bounds" transform="matrix(1,0,0,1,0.2400000000000091,-0.2442361520110552)"><svg viewBox="0 0 395.52 241.4884723040221" height="241.4884723040221" width="395.52"><g><svg viewBox="0 0 397.4976 242.6959146655422" height="241.4884723040221" width="395.52"><g><rect width="397.4976" height="5.7761324919109445" x="0" y="135.0323284937227" fill="#ed1703" opacity="1" stroke-width="0" stroke="transparent" fill-opacity="1" class="rect-qz-0" data-fill-palette-color="primary" rx="1%" id="qz-0" data-palette-color="#ed1703"></rect></g><g transform="matrix(1,0,0,1,0.9887999999999693,155.9292266712644)"><svg viewBox="0 0 395.52000000000004 86.76668799427782" height="86.76668799427782" width="395.52000000000004"><g id="textblocktransform"><svg viewBox="0 0 395.52000000000004 86.76668799427782" height="86.76668799427782" width="395.52000000000004" id="textblock"><g><svg viewBox="0 0 395.52000000000004 64.05041463609491" height="64.05041463609491" width="395.52000000000004"><g transform="matrix(1,0,0,1,0,0)"><svg width="395.52000000000004" viewBox="1 -37.99 305.56 49.49" height="64.05041463609491" data-palette-color="#ed1703"><path d="M11.06 0L11.06-4.2 14.45-4.2 14.45-33.01 6.01-33.01 6.01-27.25 1-27.25 1-37.01 34.01-37.01 34.01-27.25 29-27.25 29-33.01 19.24-33.01 19.24-4.2 23.05-4.2 23.05 0 11.06 0ZM55.64-25.44L55.64-19.95 51-19.95 51-21.51Q50.19-21.51 49.35-21.2 48.51-20.9 47.78-20.28 47.04-19.65 46.49-18.69 45.94-17.72 45.7-16.41L45.7-16.41 45.7-4.2 50-4.2 50 0 37.45 0 37.45-4.2 40.94-4.2 40.96-21.09 37.45-21.09 37.45-25.29 45.53-25.29 45.53-21.8Q45.97-22.58 46.52-23.25 47.07-23.93 47.74-24.43 48.41-24.93 49.23-25.21 50.05-25.49 51-25.49L51-25.49Q52.27-25.49 53.39-25.49 54.51-25.49 55.64-25.44L55.64-25.44ZM60.69-21.09L60.69-25.29 68.94-25.29 68.94-4.2 72.75-4.2 72.75 0 60.74 0 60.74-4.2 64.35-4.2 64.35-21.09 60.69-21.09ZM63.5-34.25L63.5-34.25Q63.5-34.89 63.75-35.46 64.01-36.04 64.44-36.46 64.86-36.89 65.45-37.15 66.04-37.4 66.69-37.4L66.69-37.4Q67.33-37.4 67.9-37.15 68.48-36.89 68.9-36.46 69.33-36.04 69.59-35.46 69.84-34.89 69.84-34.25L69.84-34.25Q69.84-33.59 69.59-33.01 69.33-32.42 68.9-31.97 68.48-31.52 67.9-31.26 67.33-31.01 66.69-31.01L66.69-31.01Q66.04-31.01 65.45-31.26 64.86-31.52 64.44-31.97 64.01-32.42 63.75-33.01 63.5-33.59 63.5-34.25ZM75.92-21.09L75.92-25.29 83.98-25.29 83.98-23.19Q85.59-24.44 87.49-25.17 89.4-25.9 91.42-25.9L91.42-25.9Q93.91-25.9 95.99-24.98 98.06-24.05 99.57-22.36 101.07-20.68 101.9-18.32 102.73-15.97 102.73-13.11L102.73-13.11Q102.73-10.06 101.8-7.54 100.87-5.03 99.22-3.23 97.58-1.44 95.31-0.44 93.03 0.56 90.32 0.56L90.32 0.56Q88.4 0.56 86.89 0.16 85.39-0.24 84.03-0.88L84.03-0.88 84.03 7.3 87.98 7.3 87.98 11.5 75.97 11.5 75.97 7.3 79.44 7.3 79.44-21.09 75.92-21.09ZM90.23-21.9L90.23-21.9Q88.47-21.9 86.85-21.19 85.22-20.48 84.03-19.24L84.03-19.24 84.03-5.54Q84.83-4.71 86.33-4.05 87.83-3.39 90.08-3.39L90.08-3.39Q91.64-3.39 93.08-4 94.52-4.61 95.62-5.82 96.72-7.03 97.38-8.81 98.04-10.6 98.04-12.94L98.04-12.94Q98.04-15.09 97.42-16.75 96.79-18.41 95.73-19.56 94.67-20.7 93.25-21.3 91.84-21.9 90.23-21.9ZM104.97 0Q104.97 0 104.97 0ZM119.4-32.79L119.4-37.01 134.36-37.01Q136.85-37.01 138.94-36.36 141.03-35.72 142.55-34.46 144.08-33.2 144.92-31.32 145.76-29.44 145.76-27L145.76-27Q145.76-24.98 144.93-23.18 144.1-21.39 142.59-20.04 141.08-18.7 138.96-17.92 136.85-17.14 134.26-17.14L134.26-17.14 127.7-17.14 127.7-4.2 131.41-4.2 131.41 0 119.4 0 119.4-4.2 122.91-4.2 122.91-32.79 119.4-32.79ZM133.75-32.79L127.7-32.79 127.7-21.14 134.36-21.14Q135.75-21.14 136.91-21.52 138.07-21.9 138.92-22.63 139.76-23.36 140.23-24.46 140.71-25.56 140.71-27L140.71-27Q140.71-29.74 139.05-31.26 137.39-32.79 133.75-32.79L133.75-32.79ZM149.2-33.79L149.2-37.99 157.41-37.99 157.41-4.2 161.22-4.2 161.22 0 149.2 0 149.2-4.2 152.87-4.2 152.87-33.79 149.2-33.79ZM180.52 0L180.52-2.34Q179.08-1 177.34-0.15 175.59 0.71 173.37 0.71L173.37 0.71Q171.52 0.71 169.97 0.12 168.42-0.46 167.29-1.48 166.17-2.49 165.55-3.83 164.92-5.18 164.92-6.69L164.92-6.69Q164.92-8.3 165.4-9.55 165.88-10.79 166.67-11.71 167.46-12.62 168.52-13.24 169.59-13.87 170.75-14.25 171.91-14.62 173.11-14.78 174.32-14.94 175.42-14.94L175.42-14.94Q177.18-14.94 178.38-14.83 179.57-14.72 180.55-14.53L180.55-14.53 180.57-16.6Q180.57-17.94 180.18-18.93 179.79-19.92 179.08-20.57 178.38-21.22 177.39-21.53 176.4-21.85 175.18-21.85L175.18-21.85Q174.03-21.85 172.98-21.69 171.93-21.53 171.02-21.28 170.1-21.02 169.33-20.69 168.56-20.36 168.02-20L168.02-20 166.54-23.14Q167.44-23.73 168.51-24.23 169.59-24.73 170.77-25.09 171.96-25.44 173.19-25.65 174.42-25.85 175.62-25.85L175.62-25.85Q177.81-25.85 179.57-25.33 181.33-24.8 182.55-23.71 183.77-22.61 184.43-20.91 185.09-19.21 185.09-16.85L185.09-16.85 185.07-4.2 187.87-4.2 187.87 0 180.52 0ZM174.37-3.1L174.37-3.1Q175.28-3.1 176.18-3.32 177.08-3.54 177.89-3.92 178.69-4.3 179.38-4.8 180.06-5.3 180.52-5.83L180.52-5.83 180.55-11.55 175.28-11.55Q173.96-11.55 172.87-11.25 171.78-10.96 170.99-10.4 170.2-9.84 169.76-9.01 169.32-8.18 169.32-7.1L169.32-7.1Q169.32-6.1 169.68-5.36 170.05-4.61 170.72-4.11 171.39-3.61 172.32-3.36 173.25-3.1 174.37-3.1ZM209.65 0L209.65-4.2 213.21-4.2 213.21-15.75Q213.21-18.65 211.74-20.15 210.26-21.66 207.5-21.66L207.5-21.66Q205.91-21.66 204.3-20.9 202.69-20.14 201.25-19.02L201.25-19.02 201.25-4.2 204.81-4.2 204.81 0 193 0 193-4.2 196.51-4.2 196.51-21.09 193-21.09 193-25.29 201.05-25.29 201.05-22.31 201.1-22.31Q201.91-23.02 202.82-23.66 203.74-24.29 204.74-24.76 205.74-25.22 206.83-25.49 207.91-25.76 209.11-25.76L209.11-25.76Q211.14-25.76 212.77-25.2 214.41-24.63 215.56-23.49 216.7-22.34 217.33-20.54 217.95-18.75 217.95-16.31L217.95-16.31 217.95-4.2 221.46-4.2 221.46 0 209.65 0ZM243 0L243-4.2 246.56-4.2 246.56-15.75Q246.56-18.65 245.08-20.15 243.61-21.66 240.85-21.66L240.85-21.66Q239.26-21.66 237.65-20.9 236.04-20.14 234.6-19.02L234.6-19.02 234.6-4.2 238.16-4.2 238.16 0 226.34 0 226.34-4.2 229.86-4.2 229.86-21.09 226.34-21.09 226.34-25.29 234.4-25.29 234.4-22.31 234.45-22.31Q235.26-23.02 236.17-23.66 237.09-24.29 238.09-24.76 239.09-25.22 240.18-25.49 241.26-25.76 242.46-25.76L242.46-25.76Q244.48-25.76 246.12-25.2 247.76-24.63 248.9-23.49 250.05-22.34 250.67-20.54 251.3-18.75 251.3-16.31L251.3-16.31 251.3-4.2 254.81-4.2 254.81 0 243 0ZM282.2-12.06L263.99-12.06Q263.99-10.99 264.15-10.1 264.31-9.2 264.6-8.4L264.6-8.4Q265.5-5.96 267.49-4.72 269.48-3.49 272-3.49L272-3.49Q273.97-3.49 275.84-4.04 277.71-4.59 279.76-5.76L279.76-5.76 281.59-2.66Q279.1-0.95 276.59-0.12 274.07 0.71 271.36 0.71L271.36 0.71Q268.8 0.71 266.61-0.15 264.43-1 262.85-2.69 261.28-4.37 260.39-6.88 259.5-9.4 259.5-12.74L259.5-12.74Q259.5-15.45 260.25-17.86 261.01-20.26 262.51-22.06 264.01-23.85 266.23-24.9 268.46-25.95 271.41-25.95L271.41-25.95Q274.27-25.95 276.18-25.09 278.1-24.22 279.31-22.79 280.52-21.36 281.14-19.53 281.76-17.7 282.01-15.8L282.01-15.8Q282.13-14.87 282.16-13.92 282.2-12.96 282.2-12.06L282.2-12.06ZM271.09-22.14L271.09-22.14Q269.51-22.14 268.32-21.69 267.14-21.24 266.31-20.4 265.48-19.56 264.98-18.33 264.48-17.11 264.23-15.6L264.23-15.6 277.34-15.6Q277.25-17.02 276.89-18.21 276.54-19.41 275.81-20.29 275.07-21.17 273.93-21.66 272.78-22.14 271.09-22.14ZM306.56-25.44L306.56-19.95 301.93-19.95 301.93-21.51Q301.12-21.51 300.28-21.2 299.44-20.9 298.7-20.28 297.97-19.65 297.42-18.69 296.87-17.72 296.63-16.41L296.63-16.41 296.63-4.2 300.92-4.2 300.92 0 288.38 0 288.38-4.2 291.87-4.2 291.89-21.09 288.38-21.09 288.38-25.29 296.46-25.29 296.46-21.8Q296.9-22.58 297.45-23.25 297.99-23.93 298.67-24.43 299.34-24.93 300.16-25.21 300.97-25.49 301.93-25.49L301.93-25.49Q303.2-25.49 304.32-25.49 305.44-25.49 306.56-25.44L306.56-25.44Z" opacity="1" transform="matrix(1,0,0,1,0,0)" fill="#ed1703" class="wordmark-text-0" data-fill-palette-color="primary" id="text-0"></path></svg></g></svg></g><g transform="matrix(1,0,0,1,75.54432000000003,79.17118032172566)"><svg viewBox="0 0 244.43135999999998 7.595507672552166" height="7.595507672552166" width="244.43135999999998"><g transform="matrix(1,0,0,1,0,0)"><svg width="244.43135999999998" viewBox="1.22 -34.52 1566.52 48.68000000000001" height="7.595507672552166" data-palette-color="#e8160b"><path d="M14.4 0L14.4-3.91 21-3.91 21-10.03 6.96-26.49 1.22-26.49 1.22-30.4 20.02-30.4 20.02-26.49 13.75-26.49 24.02-14.21 34.11-26.49 27.44-26.49 27.44-30.4 45.8-30.4 45.8-26.49 40.19-26.49 26.49-9.99 26.49-3.91 33.33-3.91 33.33 0 14.4 0ZM28.25-5.37L28.25-9.35 41.11-24.78 47.56-24.78 47.56-29.15 48.54-29.15 48.54-23.85 41.6-23.85 29.27-9.03 29.27-5.37 28.25-5.37ZM24.49-16.55L17.48-24.78 21.78-24.78 21.78-29.15 22.75-29.15 22.75-23.85 19.53-23.85 25.1-17.31 24.49-16.55ZM29.03-23.85L29.03-24.78 31.25-24.78 30.49-23.85 29.03-23.85ZM2.81-23.85L2.81-24.78 6.96-24.78 7.76-23.85 2.81-23.85ZM15.87 1.71L35.08 1.71 35.08-2.54 36.06-2.54 36.06 2.64 15.87 2.64 15.87 1.71ZM51.19-11.4L51.19-11.4Q51.19-14.06 52.34-16.42 53.49-18.77 55.55-20.52 57.61-22.27 60.5-23.28 63.38-24.29 66.82-24.29L66.82-24.29Q70.43-24.29 73.28-23.33 76.12-22.36 78.09-20.65 80.05-18.95 81.09-16.6 82.13-14.26 82.13-11.5L82.13-11.5Q82.13-8.84 80.99-6.59 79.86-4.35 77.77-2.72 75.68-1.1 72.76-0.18 69.85 0.73 66.26 0.73L66.26 0.73Q62.86 0.73 60.09-0.28 57.32-1.29 55.34-2.98 53.37-4.66 52.28-6.85 51.19-9.03 51.19-11.4ZM55.03-1.12L55.03-1.12Q57.39 0.59 60.26 1.51 63.13 2.44 66.75 2.44L66.75 2.44Q70.11 2.44 73.22 1.53 76.32 0.61 78.68-1.17 81.05-2.95 82.47-5.55 83.88-8.15 83.88-11.5L83.88-11.5Q83.88-13.13 83.43-14.81 82.98-16.48 82.16-18.02 81.35-19.56 80.17-20.89 79-22.22 77.56-23.14L77.56-23.14Q79.2-22.41 80.55-21.22 81.91-20.02 82.86-18.49 83.81-16.97 84.34-15.19 84.86-13.4 84.86-11.5L84.86-11.5Q84.86-9.11 84.18-7.07 83.49-5.03 82.29-3.38 81.08-1.73 79.4-0.46 77.73 0.81 75.73 1.65 73.73 2.49 71.47 2.93 69.21 3.37 66.87 3.37L66.87 3.37Q64.91 3.37 63.13 3.06 61.35 2.76 59.82 2.19 58.3 1.61 57.08 0.78 55.86-0.05 55.03-1.12ZM56.61-11.5L56.61-11.5Q56.61-9.62 57.33-8.07 58.05-6.52 59.37-5.41 60.69-4.3 62.53-3.69 64.38-3.08 66.62-3.08L66.62-3.08Q68.89-3.08 70.75-3.7 72.6-4.32 73.95-5.43 75.29-6.54 76.02-8.09 76.76-9.64 76.76-11.5L76.76-11.5Q76.76-13.33 76.02-14.95 75.29-16.58 73.97-17.81 72.65-19.04 70.81-19.76 68.97-20.48 66.75-20.48L66.75-20.48Q64.43-20.48 62.56-19.79 60.69-19.09 59.37-17.88 58.05-16.67 57.33-15.04 56.61-13.4 56.61-11.5ZM58.32-11.4L58.32-11.4Q58.32-12.94 58.93-14.29 59.54-15.65 60.65-16.64 61.77-17.63 63.32-18.2 64.87-18.77 66.75-18.77L66.75-18.77Q67.94-18.77 69.06-18.52 70.19-18.26 71.14-17.77 72.09-17.29 72.82-16.59 73.56-15.89 74-15.01L74-15.01Q72.39-16.48 70.64-17.16 68.89-17.85 66.7-17.85L66.7-17.85Q65.11-17.85 63.77-17.33 62.42-16.82 61.42-15.94 60.42-15.06 59.86-13.89 59.3-12.72 59.3-11.4L59.3-11.4Q59.3-10.3 59.57-9.35 59.84-8.4 60.48-7.58 61.13-6.76 62.2-6.1 63.28-5.44 64.89-4.93L64.89-4.93Q63.43-5.03 62.22-5.55 61.01-6.08 60.14-6.93 59.27-7.79 58.8-8.94 58.32-10.08 58.32-11.4ZM93.75-5.47L93.75-5.47Q93.26-6.71 93.02-8.18 92.79-9.64 92.79-11.4L92.79-11.4 92.79-19.41 88.64-19.41 88.64-23.56 98.04-23.56 98.04-13.48Q98.04-11.5 98.22-9.95 98.41-8.4 98.75-7.52L98.75-7.52Q99.19-6.4 99.9-5.62 100.61-4.83 101.5-4.35 102.39-3.86 103.43-3.64 104.46-3.42 105.59-3.42L105.59-3.42Q106.78-3.42 108.06-3.86 109.35-4.3 110.54-5.08 111.74-5.86 112.78-6.93 113.81-8.01 114.52-9.25L114.52-9.25 114.52-19.41 109.15-19.41 109.15-23.56 119.77-23.56 119.77-3.66 123.92-3.66 123.92 0 114.52 0 114.52-3.71Q113.74-2.76 112.63-1.95 111.52-1.15 110.16-0.55 108.81 0.05 107.25 0.39 105.68 0.73 104 0.73L104 0.73Q100.36 0.73 97.69-0.79 95.01-2.32 93.75-5.47ZM121.48-5.13L121.48-22.31 122.46-22.31 122.46-5.13 121.48-5.13ZM99.8-12.01L99.8-22.31 100.78-22.31 100.78-12.28Q100.78-10.38 101.14-9.11 101.51-7.84 102.12-7.03 102.73-6.23 103.51-5.79 104.29-5.35 105.12-5.1L105.12-5.1Q102.56-5.13 101.18-6.8 99.8-8.47 99.8-12.01L99.8-12.01ZM110.62-16.77L110.62-17.7 113.5-17.7 113.5-16.77 110.62-16.77ZM90.11-16.77L90.11-17.7 91.77-17.7 91.77-16.77 90.11-16.77ZM115.99 1.71L125.68 1.71 125.68-2.29 126.66-2.29 126.66 2.64 115.99 2.64 115.99 1.71ZM94.01-1.64L94.01-1.64Q95.92 0.42 98.31 1.43 100.7 2.44 104.02 2.44L104.02 2.44Q106.98 2.44 109.31 1.67 111.64 0.9 113.54-0.42L113.54-0.42 113.54 0.71Q111.4 2.1 109.08 2.73 106.76 3.37 104.05 3.37L104.05 3.37Q100.36 3.37 97.77 2.09 95.19 0.81 94.01-1.64ZM132.63 0L132.63-3.66 138.01-3.66 138.01-19.41 132.63-19.41 132.63-23.56 143.25-23.56 143.25-19.48Q144.01-20.46 145.07-21.34 146.14-22.22 147.48-22.88 148.82-23.54 150.41-23.91 151.99-24.29 153.8-24.29L153.8-24.29Q154.34-24.29 155.14-24.26 155.95-24.22 156.68-24.1L156.68-24.1 156.68-19.31Q155.83-19.51 155-19.58 154.17-19.65 153.39-19.65L153.39-19.65Q151.43-19.65 149.69-19.03 147.94-18.41 146.57-17.22 145.21-16.04 144.33-14.33 143.45-12.62 143.25-10.42L143.25-10.42 143.25-3.66 152.04-3.66 152.04 0 132.63 0ZM144.96-5.13L144.96-8.23Q144.96-10.52 145.55-12.33 146.14-14.14 147.22-15.38 148.31-16.63 149.87-17.29 151.43-17.94 153.39-17.94L153.39-17.94Q153.8-17.94 154.44-17.88 155.07-17.82 155.77-17.7 156.46-17.58 157.17-17.4 157.88-17.21 158.44-16.97L158.44-16.97 158.44-22.73 159.42-22.73 159.42-15.75Q158.73-16.04 157.94-16.27 157.15-16.5 156.33-16.67 155.51-16.85 154.75-16.93 154-17.02 153.39-17.02L153.39-17.02Q151.6-17.02 150.22-16.43 148.85-15.84 147.89-14.75 146.94-13.65 146.44-12.06 145.94-10.47 145.94-8.47L145.94-8.47 145.94-5.13 144.96-5.13ZM134.1-16.77L134.1-17.7 136.98-17.7 136.98-16.77 134.1-16.77ZM134.1 1.71L153.8 1.71 153.8-2.29 154.78-2.29 154.78 2.64 134.1 2.64 134.1 1.71ZM186-12.52L186-26.49 179.43-26.49 179.43-30.4 198.11-30.4 198.11-26.49 191.49-26.49 191.49-12.52Q191.49-10.28 192.31-8.56 193.13-6.84 194.56-5.66 195.98-4.49 197.91-3.89 199.84-3.3 202.06-3.3L202.06-3.3Q204.28-3.3 205.97-3.69 207.65-4.08 208.86-4.74 210.07-5.4 210.82-6.27 211.56-7.15 211.93-8.13L211.93-8.13Q212.15-8.89 212.28-9.53 212.41-10.18 212.5-10.95 212.59-11.72 212.61-12.74 212.63-13.77 212.63-15.31L212.63-15.31 212.63-26.49 206.04-26.49 206.04-30.4 224.72-30.4 224.72-26.49 218.13-26.49 218.13-14.89Q218.13-12.67 218.03-11.15 217.93-9.62 217.74-8.81L217.74-8.81Q217.13-6.49 215.69-4.72 214.25-2.95 212.18-1.77 210.12-0.59 207.53 0.01 204.94 0.61 202.06 0.61L202.06 0.61Q198.23 0.61 195.24-0.33 192.25-1.27 190.2-2.99 188.15-4.71 187.07-7.13 186-9.55 186-12.52L186-12.52ZM190.81-0.66L190.81-0.66Q193.47 0.73 196.19 1.53 198.91 2.32 202.06 2.32L202.06 2.32Q204.46 2.32 206.71 1.89 208.97 1.46 210.95 0.63 212.93-0.2 214.57-1.45 216.22-2.71 217.39-4.36 218.57-6.01 219.23-8.06 219.88-10.11 219.88-12.55L219.88-12.55 219.88-24.78 226.72-24.78 226.72-29.15 227.7-29.15 227.7-23.85 220.86-23.85 220.86-12.52Q220.86-8.81 219.41-5.9 217.96-2.98 215.42-0.94 212.88 1.1 209.45 2.17 206.02 3.25 202.06 3.25L202.06 3.25Q200.33 3.25 198.68 2.98 197.03 2.71 195.57 2.21 194.1 1.71 192.88 0.99 191.66 0.27 190.81-0.66ZM193.25-12.52L193.25-24.78 199.87-24.78 199.87-29.15 200.84-29.15 200.84-23.85 194.23-23.85 194.23-12.52Q194.23-11.08 194.64-9.81 195.06-8.54 195.95-7.54 196.84-6.54 198.23-5.86 199.62-5.18 201.6-4.93L201.6-4.93Q199.45-4.93 197.88-5.49 196.3-6.05 195.28-7.06 194.25-8.06 193.75-9.45 193.25-10.84 193.25-12.52L193.25-12.52ZM207.51-23.85L207.51-24.78 211.61-24.78 211.61-23.85 207.51-23.85ZM180.9-23.85L180.9-24.78 185-24.78 185-23.85 180.9-23.85ZM231.77 0L231.77-3.66 237.14-3.66 237.14-30.4 231.77-30.4 231.77-34.06 242.39-34.06 242.39-3.66 247.76-3.66 247.76 0 231.77 0ZM244.1-5.13L244.1-32.81 245.08-32.81 245.08-5.13 244.1-5.13ZM233.24-27.76L233.24-28.69 236.12-28.69 236.12-27.76 233.24-27.76ZM233.24 1.71L249.52 1.71 249.52-2.29 250.5-2.29 250.5 2.64 233.24 2.64 233.24 1.71ZM259.5-8.74L259.5-19.41 254.13-19.41 254.13-23.56 259.5-23.56 259.5-28.49 264.75-30.69 264.75-23.56 276.89-23.56 276.89-19.41 264.75-19.41 264.75-7.76Q264.75-5.93 265.9-5.04 267.05-4.15 269.03-4.15L269.03-4.15 275.91-4.15 275.91 0 269.03 0Q267.05 0 265.31-0.43 263.58-0.85 262.29-1.87 260.99-2.88 260.25-4.55 259.5-6.23 259.5-8.74L259.5-8.74ZM266.51-25.02L266.51-29.35 267.49-29.79 267.49-25.02 266.51-25.02ZM266.46-6.76L266.46-17.97 278.64-17.97 278.64-22.46 279.62-22.46 279.62-17.04 267.44-17.04 267.44-5.79Q266.61-6.01 266.46-6.76L266.46-6.76ZM255.6-16.77L255.6-17.7 258.53-17.7 258.53-16.77 255.6-16.77ZM259.36-2.1L259.36-2.1Q260.14-1 261.1-0.27 262.07 0.46 263.26 0.9 264.46 1.34 265.88 1.53 267.29 1.71 268.98 1.71L268.98 1.71 277.67 1.71 277.67-3.05 278.64-3.05 278.64 2.64 268.85 2.64Q266.97 2.64 265.44 2.39 263.9 2.15 262.71 1.6 261.53 1.05 260.69 0.13 259.85-0.78 259.36-2.1ZM290.21-29.64L290.21-34.52 296.2-34.52 296.2-29.64 290.21-29.64ZM291.68-27L291.68-27.93 297.95-27.93 297.95-33.15 298.93-33.15 298.93-27 291.68-27ZM285.09 0L285.09-3.66 291.68-3.66 290.95-19.41 285.09-19.41 285.09-23.56 296.2-23.56 296.2-3.66 301.81-3.66 301.81 0 285.09 0ZM297.9-5.13L297.9-22.31 298.88-22.31 298.88-5.13 297.9-5.13ZM286.55-16.77L286.55-17.7 289.92-17.7 289.92-16.77 286.55-16.77ZM286.55 1.71L303.57 1.71 303.57-2.29 304.55-2.29 304.55 2.64 286.55 2.64 286.55 1.71ZM308.99 0L308.99-3.66 314.36-3.66 314.36-19.41 308.99-19.41 308.99-23.56 319.61-23.56 319.61-19.9Q320.34-20.83 321.36-21.63 322.39-22.44 323.67-23.02 324.95-23.61 326.45-23.95 327.96-24.29 329.64-24.29L329.64-24.29Q333.08-24.29 335.54-22.95 337.99-21.61 339.33-18.8L339.33-18.8Q340.24-20 341.44-21.01 342.65-22.02 344.09-22.75 345.53-23.49 347.18-23.89 348.83-24.29 350.64-24.29L350.64-24.29Q353.15-24.29 355.18-23.56 357.2-22.83 358.63-21.33 360.06-19.82 360.83-17.54 361.6-15.26 361.6-12.16L361.6-12.16 361.6-3.66 366.97-3.66 366.97 0 352.2 0 352.2-3.66 356.35-3.66 356.35-9.96Q356.35-12.26 356.15-13.96 355.96-15.67 355.5-16.6L355.5-16.6Q354.57-18.53 352.99-19.34 351.42-20.14 349.29-20.14L349.29-20.14Q348.07-20.14 346.8-19.69 345.53-19.24 344.36-18.43 343.19-17.63 342.19-16.53 341.19-15.43 340.5-14.16L340.5-14.16Q340.55-13.67 340.58-13.17 340.6-12.67 340.6-12.16L340.6-12.16 340.6-3.66 344.75-3.66 344.75 0 331.2 0 331.2-3.66 335.35-3.66 335.35-10.08Q335.35-12.06 335.17-13.61 334.99-15.16 334.65-16.04L334.65-16.04Q333.79-18.26 332.16-19.2 330.52-20.14 328.3-20.14L328.3-20.14Q327.08-20.14 325.83-19.7 324.59-19.26 323.43-18.48 322.27-17.7 321.28-16.63 320.29-15.55 319.61-14.31L319.61-14.31 319.61-3.66 323.76-3.66 323.76 0 308.99 0ZM358.18-23.56L358.18-23.56Q359.84-23.14 361.01-22.16 362.18-21.17 362.92-19.65 363.65-18.14 363.99-16.16 364.33-14.18 364.33-11.82L364.33-11.82 364.33-5.13 363.36-5.13 363.36-11.99Q363.36-14.14 363.03-15.98 362.7-17.82 362.04-19.3 361.38-20.78 360.41-21.85 359.45-22.92 358.18-23.56ZM337.18-23.56L337.18-23.56Q338.36-23.41 339.25-22.9 340.14-22.39 340.63-21.78L340.63-21.78 339.92-21.12Q339.77-21.41 339.47-21.78 339.16-22.14 338.78-22.5 338.41-22.85 337.98-23.13 337.55-23.41 337.18-23.56ZM342.36-5.13L342.36-13.67Q342.97-14.75 343.78-15.63 344.58-16.5 345.51-17.13 346.44-17.75 347.46-18.09 348.49-18.43 349.56-18.43L349.56-18.43Q351.25-18.43 352.33-17.8 353.42-17.16 353.91-16.19L353.91-16.19Q353.15-16.75 352.1-17.13 351.05-17.5 349.51-17.5L349.51-17.5Q348.56-17.5 347.62-17.18 346.68-16.85 345.86-16.28 345.05-15.72 344.39-14.99 343.73-14.26 343.34-13.48L343.34-13.48 343.34-5.13 342.36-5.13ZM321.36-5.13L321.36-13.67Q321.97-14.75 322.78-15.63 323.59-16.5 324.51-17.13 325.44-17.75 326.47-18.09 327.49-18.43 328.57-18.43L328.57-18.43Q330.25-18.43 331.34-17.8 332.42-17.16 332.91-16.19L332.91-16.19Q332.16-16.75 331.11-17.13 330.06-17.5 328.52-17.5L328.52-17.5Q327.57-17.5 326.63-17.18 325.69-16.85 324.87-16.28 324.05-15.72 323.39-14.99 322.73-14.26 322.34-13.48L322.34-13.48 322.34-5.13 321.36-5.13ZM310.45-16.77L310.45-17.7 313.33-17.7 313.33-16.77 310.45-16.77ZM353.66 1.71L368.73 1.71 368.73-2.29 369.7-2.29 369.7 2.64 353.66 2.64 353.66 1.71ZM332.67 1.71L346.51 1.71 346.51-2.29 347.49-2.29 347.49 2.64 332.67 2.64 332.67 1.71ZM310.45 1.71L325.51 1.71 325.51-2.29 326.49-2.29 326.49 2.64 310.45 2.64 310.45 1.71ZM373.44-11.69L373.44-11.69Q373.44-13.96 374.39-16.21 375.34-18.46 377.21-20.25 379.08-22.05 381.84-23.17 384.59-24.29 388.18-24.29L388.18-24.29Q389.33-24.29 390.64-24.12 391.94-23.95 393.25-23.56 394.56-23.17 395.8-22.52 397.05-21.88 398.07-20.95L398.07-20.95 398.07-23.56 408.57-23.56 408.57-19.41 403.2-19.41 403.2-3.66 408.57-3.66 408.57 0 398.07 0 398.07-3.17Q397.12-2.22 395.91-1.49 394.7-0.76 393.35-0.27 391.99 0.22 390.54 0.48 389.09 0.73 387.65 0.73L387.65 0.73Q384.13 0.73 381.47-0.27 378.81-1.27 377.03-2.97 375.24-4.66 374.34-6.92 373.44-9.18 373.44-11.69ZM404.96-5.13L404.96-17.7 410.33-17.7 410.33-21.7 411.3-21.7 411.3-16.77 405.93-16.77 405.93-5.13 404.96-5.13ZM378.73-11.89L378.73-11.89Q378.73-9.86 379.45-8.23 380.18-6.59 381.42-5.44 382.67-4.3 384.37-3.66 386.08-3.03 388.06-3.03L388.06-3.03Q389.21-3.03 390.39-3.26 391.58-3.49 392.69-3.97 393.8-4.44 394.79-5.16 395.78-5.88 396.5-6.87 397.22-7.86 397.64-9.13 398.07-10.4 398.07-11.96L398.07-11.96Q398.07-13.7 397.27-15.25 396.46-16.8 395.1-17.97 393.75-19.14 391.94-19.82 390.14-20.51 388.13-20.51L388.13-20.51Q386.13-20.51 384.41-19.9 382.69-19.29 381.43-18.16 380.18-17.04 379.45-15.44 378.73-13.84 378.73-11.89ZM380.42-11.77L380.42-11.77Q380.42-13.31 380.99-14.59 381.57-15.87 382.59-16.81 383.62-17.75 385.03-18.27 386.45-18.8 388.13-18.8L388.13-18.8Q389.4-18.8 390.43-18.52 391.45-18.24 392.21-17.83 392.97-17.43 393.46-17 393.94-16.58 394.14-16.26L394.14-16.26Q392.82-16.99 391.43-17.43 390.04-17.87 388.13-17.87L388.13-17.87Q386.6-17.87 385.36-17.37 384.13-16.87 383.25-16.02 382.37-15.16 381.9-14.04 381.42-12.92 381.42-11.67L381.42-11.67Q381.42-10.5 381.69-9.47 381.96-8.45 382.56-7.58 383.15-6.71 384.12-5.99 385.08-5.27 386.45-4.74L386.45-4.74Q384.91-5 383.78-5.65 382.64-6.3 381.9-7.23 381.15-8.15 380.79-9.31 380.42-10.47 380.42-11.77ZM399.54 1.71L410.33 1.71 410.33-2.29 411.3-2.29 411.3 2.64 399.54 2.64 399.54 1.71ZM376.59-1.05L376.59-1.05Q377.59-0.24 378.86 0.4 380.13 1.05 381.57 1.5 383.01 1.95 384.56 2.2 386.11 2.44 387.67 2.44L387.67 2.44Q390.38 2.44 392.74 1.77 395.09 1.1 396.92-0.1L396.92-0.1 396.92 1.03Q395.09 2.12 392.69 2.75 390.28 3.37 387.69 3.37L387.69 3.37Q385.91 3.37 384.2 3.09 382.49 2.81 381.03 2.25 379.56 1.68 378.42 0.85 377.27 0.02 376.59-1.05ZM421.65-8.74L421.65-19.41 416.28-19.41 416.28-23.56 421.65-23.56 421.65-28.49 426.9-30.69 426.9-23.56 439.04-23.56 439.04-19.41 426.9-19.41 426.9-7.76Q426.9-5.93 428.05-5.04 429.2-4.15 431.17-4.15L431.17-4.15 438.06-4.15 438.06 0 431.17 0Q429.2 0 427.46-0.43 425.73-0.85 424.44-1.87 423.14-2.88 422.4-4.55 421.65-6.23 421.65-8.74L421.65-8.74ZM428.66-25.02L428.66-29.35 429.64-29.79 429.64-25.02 428.66-25.02ZM428.61-6.76L428.61-17.97 440.79-17.97 440.79-22.46 441.77-22.46 441.77-17.04 429.59-17.04 429.59-5.79Q428.76-6.01 428.61-6.76L428.61-6.76ZM417.75-16.77L417.75-17.7 420.68-17.7 420.68-16.77 417.75-16.77ZM421.51-2.1L421.51-2.1Q422.29-1 423.25-0.27 424.22 0.46 425.41 0.9 426.61 1.34 428.02 1.53 429.44 1.71 431.12 1.71L431.12 1.71 439.82 1.71 439.82-3.05 440.79-3.05 440.79 2.64 431 2.64Q429.12 2.64 427.58 2.39 426.05 2.15 424.86 1.6 423.68 1.05 422.84 0.13 421.99-0.78 421.51-2.1ZM446.99-11.33L446.99-11.33Q446.99-13.92 447.94-16.26 448.9-18.6 450.8-20.39 452.7-22.17 455.54-23.23 458.37-24.29 462.1-24.29L462.1-24.29Q465.62-24.29 468.38-23.35 471.14-22.41 473.07-20.63 474.99-18.85 476.01-16.27 477.02-13.7 477.02-10.4L477.02-10.4 452.34-10.4Q452.56-8.64 453.47-7.28 454.39-5.91 455.8-4.97 457.22-4.03 459.02-3.54 460.81-3.05 462.76-3.05L462.76-3.05Q464.35-3.05 466-3.31 467.65-3.56 469.11-4 470.58-4.44 471.72-4.99 472.87-5.54 473.48-6.13L473.48-6.13 474.41-6.13 476.7-3.64Q474.19-1.49 470.59-0.38 466.99 0.73 462.64 0.73L462.64 0.73Q458.86 0.73 455.94-0.2 453.02-1.12 451.03-2.76 449.04-4.39 448.02-6.59 446.99-8.79 446.99-11.33ZM454.68-8.69L478.68-8.69Q478.73-9.06 478.75-9.48 478.78-9.91 478.78-10.4L478.78-10.4Q478.78-12.48 478.35-14.37 477.92-16.26 477.11-17.88 476.29-19.51 475.09-20.85 473.9-22.19 472.38-23.14L472.38-23.14Q473.99-22.51 475.35-21.4 476.7-20.29 477.68-18.7 478.66-17.11 479.21-15.04 479.76-12.96 479.76-10.4L479.76-10.4Q479.76-10.21 479.74-9.91 479.73-9.62 479.71-9.25 479.68-8.89 479.65-8.51 479.61-8.13 479.56-7.76L479.56-7.76 456.49-7.76Q456.95-6.98 458.2-6.16 459.44-5.35 461.42-4.79L461.42-4.79Q460.2-4.79 459.14-5.08 458.08-5.37 457.21-5.88 456.34-6.4 455.7-7.12 455.05-7.84 454.68-8.69L454.68-8.69ZM452.48-13.45L471.38-13.45Q470.99-15.14 470.17-16.46 469.35-17.77 468.16-18.66 466.96-19.56 465.42-20.03 463.89-20.51 462.05-20.51L462.05-20.51Q460.08-20.51 458.45-19.98 456.83-19.46 455.61-18.52 454.39-17.58 453.6-16.28 452.8-14.99 452.48-13.45L452.48-13.45ZM455.83-14.5L454.71-14.5Q455.61-16.5 457.55-17.65 459.49-18.8 462.05-18.8L462.05-18.8Q463.1-18.8 464.09-18.63 465.08-18.46 465.92-18.1 466.77-17.75 467.4-17.24 468.04-16.72 468.4-16.06L468.4-16.06Q467.01-16.99 465.42-17.43 463.84-17.87 462.01-17.87L462.01-17.87Q459.88-17.87 458.27-16.99 456.66-16.11 455.83-14.5L455.83-14.5ZM449.95-1.07L449.95-1.07Q452.31 0.61 455.45 1.54 458.59 2.47 462.64 2.47L462.64 2.47Q466.6 2.47 470.05 1.56 473.51 0.66 476.29-1.2L476.29-1.2 476.95-0.49Q473.8 1.64 470.32 2.51 466.84 3.39 463.03 3.39L463.03 3.39Q458.08 3.39 454.82 2.2 451.56 1 449.95-1.07ZM500.82-15.21L500.82-15.21Q500.82-17.24 501.38-19.2 501.94-21.17 503.04-22.95 504.14-24.73 505.76-26.26 507.39-27.78 509.51-28.89 511.63-30 514.24-30.63 516.84-31.25 519.89-31.25L519.89-31.25Q523.94-31.25 526.87-30.2 529.8-29.15 532.02-27.32L532.02-27.32 532.02-30.4 537.78-30.4 537.78-21.61 532.02-21.61Q530.87-23 529.59-24.06 528.31-25.12 526.83-25.85 525.36-26.59 523.61-26.97 521.86-27.34 519.81-27.34L519.81-27.34Q516.79-27.34 514.44-26.39 512.1-25.44 510.49-23.79 508.88-22.14 508.05-19.92 507.22-17.7 507.22-15.19L507.22-15.19Q507.22-12.57 508.05-10.38 508.88-8.18 510.51-6.58 512.15-4.98 514.56-4.08 516.98-3.17 520.18-3.17L520.18-3.17Q523.04-3.17 525.31-3.85 527.58-4.52 529.2-5.73 530.82-6.93 531.76-8.62 532.7-10.3 532.92-12.35L532.92-12.35 522.67-12.35 522.67-15.41 538.51-15.41 538.51 0 532.95 0 532.95-3.88Q531.9-2.86 530.59-2.01 529.29-1.17 527.69-0.56 526.09 0.05 524.16 0.39 522.23 0.73 519.96 0.73L519.96 0.73Q515.39 0.73 511.83-0.5 508.27-1.73 505.82-3.88 503.38-6.03 502.1-8.94 500.82-11.84 500.82-15.21ZM533.49-18.97L533.49-19.9 539.54-19.9 539.54-29.15 540.52-29.15 540.52-18.97 533.49-18.97ZM508.97-15.21L508.97-15.21Q508.97-17.43 509.72-19.34 510.46-21.24 511.85-22.64 513.25-24.05 515.26-24.84 517.27-25.63 519.81-25.63L519.81-25.63Q521.57-25.63 523-25.38 524.43-25.12 525.56-24.63 526.7-24.15 527.6-23.43 528.51-22.71 529.24-21.78L529.24-21.78Q528.11-22.58 527.04-23.13 525.97-23.68 524.84-24.04 523.72-24.39 522.49-24.55 521.25-24.71 519.81-24.71L519.81-24.71Q517.49-24.71 515.66-23.96 513.83-23.22 512.56-21.94 511.29-20.65 510.62-18.92 509.95-17.19 509.95-15.21L509.95-15.21Q509.95-13.5 510.44-11.99 510.93-10.47 511.98-9.18 513.03-7.89 514.66-6.82 516.3-5.76 518.59-4.96L518.59-4.96Q516.32-5.32 514.54-6.18 512.76-7.03 511.53-8.34 510.29-9.64 509.63-11.36 508.97-13.09 508.97-15.21ZM534.41 1.71L540.27 1.71 540.27-14.18 541.25-14.18 541.25 2.64 534.41 2.64 534.41 1.71ZM524.04-9.72L524.04-10.64 531.56-10.64Q531.51-10.5 531.42-10.22 531.34-9.94 531.24-9.72L531.24-9.72 524.04-9.72ZM507.07-1.17L507.07-1.17Q508.46-0.22 509.86 0.46 511.27 1.15 512.82 1.59 514.37 2.03 516.14 2.23 517.91 2.44 520.01 2.44L520.01 2.44Q521.82 2.44 523.39 2.27 524.97 2.1 526.37 1.73 527.77 1.37 529.03 0.81 530.29 0.24 531.48-0.54L531.48-0.54 531.48 0.59Q528.97 2.12 526.15 2.75 523.33 3.37 519.96 3.37L519.96 3.37Q515.47 3.37 512.31 2.26 509.14 1.15 507.07-1.17ZM551.21-5.47L551.21-5.47Q550.72-6.71 550.49-8.18 550.26-9.64 550.26-11.4L550.26-11.4 550.26-19.41 546.11-19.41 546.11-23.56 555.5-23.56 555.5-13.48Q555.5-11.5 555.69-9.95 555.87-8.4 556.21-7.52L556.21-7.52Q556.65-6.4 557.36-5.62 558.07-4.83 558.96-4.35 559.85-3.86 560.89-3.64 561.93-3.42 563.05-3.42L563.05-3.42Q564.24-3.42 565.53-3.86 566.81-4.3 568-5.08 569.2-5.86 570.24-6.93 571.28-8.01 571.98-9.25L571.98-9.25 571.98-19.41 566.61-19.41 566.61-23.56 577.23-23.56 577.23-3.66 581.38-3.66 581.38 0 571.98 0 571.98-3.71Q571.2-2.76 570.09-1.95 568.98-1.15 567.63-0.55 566.27 0.05 564.71 0.39 563.15 0.73 561.46 0.73L561.46 0.73Q557.82 0.73 555.15-0.79 552.48-2.32 551.21-5.47ZM578.94-5.13L578.94-22.31 579.92-22.31 579.92-5.13 578.94-5.13ZM557.26-12.01L557.26-22.31 558.24-22.31 558.24-12.28Q558.24-10.38 558.61-9.11 558.97-7.84 559.58-7.03 560.19-6.23 560.97-5.79 561.75-5.35 562.58-5.1L562.58-5.1Q560.02-5.13 558.64-6.8 557.26-8.47 557.26-12.01L557.26-12.01ZM568.08-16.77L568.08-17.7 570.96-17.7 570.96-16.77 568.08-16.77ZM547.57-16.77L547.57-17.7 549.23-17.7 549.23-16.77 547.57-16.77ZM573.45 1.71L583.14 1.71 583.14-2.29 584.12-2.29 584.12 2.64 573.45 2.64 573.45 1.71ZM551.48-1.64L551.48-1.64Q553.38 0.42 555.77 1.43 558.17 2.44 561.49 2.44L561.49 2.44Q564.44 2.44 566.77 1.67 569.1 0.9 571.01-0.42L571.01-0.42 571.01 0.71Q568.86 2.1 566.54 2.73 564.22 3.37 561.51 3.37L561.51 3.37Q557.82 3.37 555.24 2.09 552.65 0.81 551.48-1.64ZM594.74-29.64L594.74-34.52 600.72-34.52 600.72-29.64 594.74-29.64ZM596.2-27L596.2-27.93 602.47-27.93 602.47-33.15 603.45-33.15 603.45-27 596.2-27ZM589.61 0L589.61-3.66 596.2-3.66 595.47-19.41 589.61-19.41 589.61-23.56 600.72-23.56 600.72-3.66 606.33-3.66 606.33 0 589.61 0ZM602.43-5.13L602.43-22.31 603.4-22.31 603.4-5.13 602.43-5.13ZM591.07-16.77L591.07-17.7 594.44-17.7 594.44-16.77 591.07-16.77ZM591.07 1.71L608.09 1.71 608.09-2.29 609.07-2.29 609.07 2.64 591.07 2.64 591.07 1.71ZM612.48-11.45L612.48-11.45Q612.48-13.72 613.43-15.93 614.39-18.14 616.25-19.89 618.12-21.63 620.88-22.72 623.64-23.8 627.23-23.8L627.23-23.8Q628.38-23.8 629.68-23.63 630.99-23.46 632.29-23.07 633.6-22.68 634.85-22.03 636.09-21.39 637.12-20.46L637.12-20.46 637.12-30.15 631.74-30.15 631.74-34.06 642.36-34.06 642.36-3.66 646.52-3.66 646.52 0 637.12 0 637.12-3.1Q635.21-1.25 632.53-0.26 629.84 0.73 626.69 0.73L626.69 0.73Q623.69 0.73 621.1-0.06 618.51-0.85 616.6-2.39 614.68-3.93 613.58-6.2 612.48-8.47 612.48-11.45ZM644.12-5.13L644.12-32.81 645.1-32.81 645.1-5.13 644.12-5.13ZM633.21-27.51L633.21-28.44 636.09-28.44 636.09-27.51 633.21-27.51ZM617.78-11.65L617.78-11.65Q617.78-9.67 618.43-8.08 619.07-6.49 620.28-5.37 621.49-4.25 623.21-3.64 624.93-3.03 627.11-3.03L627.11-3.03Q628.25-3.03 629.44-3.26 630.62-3.49 631.73-3.97 632.84-4.44 633.83-5.16 634.82-5.88 635.54-6.87 636.26-7.86 636.69-9.13 637.12-10.4 637.12-11.96L637.12-11.96Q637.12-13.7 636.31-15.17 635.5-16.65 634.15-17.72 632.79-18.8 630.99-19.41 629.18-20.02 627.18-20.02L627.18-20.02Q625.23-20.02 623.52-19.41 621.81-18.8 620.53-17.7 619.24-16.6 618.51-15.05 617.78-13.5 617.78-11.65ZM619.49-11.65L619.49-11.65Q619.49-13.04 620.04-14.23 620.59-15.43 621.59-16.33 622.59-17.24 624.02-17.75 625.45-18.26 627.18-18.26L627.18-18.26Q629.67-18.26 631.38-17.53 633.09-16.8 633.7-15.7L633.7-15.7Q632.38-16.55 630.73-16.94 629.08-17.33 627.18-17.33L627.18-17.33Q625.64-17.33 624.41-16.88 623.18-16.43 622.31-15.65 621.44-14.87 620.97-13.81 620.49-12.74 620.49-11.55L620.49-11.55Q620.49-6.93 625.69-4.76L625.69-4.76Q624.2-4.93 623.05-5.54 621.91-6.15 621.11-7.07 620.32-7.98 619.9-9.16 619.49-10.33 619.49-11.65ZM638.58 1.71L648.27 1.71 648.27-2.29 649.25-2.29 649.25 2.64 638.58 2.64 638.58 1.71ZM615.63-1.05L615.63-1.05Q616.63-0.24 617.9 0.4 619.17 1.05 620.61 1.5 622.05 1.95 623.6 2.2 625.15 2.44 626.72 2.44L626.72 2.44Q629.43 2.44 631.78 1.77 634.14 1.1 635.97-0.1L635.97-0.1 635.97 1.03Q634.14 2.12 631.73 2.75 629.33 3.37 626.74 3.37L626.74 3.37Q622.78 3.37 619.98 2.26 617.17 1.15 615.63-1.05ZM653.76-11.33L653.76-11.33Q653.76-13.92 654.72-16.26 655.67-18.6 657.57-20.39 659.48-22.17 662.31-23.23 665.14-24.29 668.88-24.29L668.88-24.29Q672.39-24.29 675.15-23.35 677.91-22.41 679.84-20.63 681.77-18.85 682.78-16.27 683.79-13.7 683.79-10.4L683.79-10.4 659.11-10.4Q659.33-8.64 660.25-7.28 661.16-5.91 662.58-4.97 663.99-4.03 665.79-3.54 667.58-3.05 669.54-3.05L669.54-3.05Q671.12-3.05 672.77-3.31 674.42-3.56 675.88-4 677.35-4.44 678.5-4.99 679.64-5.54 680.25-6.13L680.25-6.13 681.18-6.13 683.48-3.64Q680.96-1.49 677.36-0.38 673.76 0.73 669.41 0.73L669.41 0.73Q665.63 0.73 662.71-0.2 659.79-1.12 657.8-2.76 655.81-4.39 654.79-6.59 653.76-8.79 653.76-11.33ZM661.45-8.69L685.45-8.69Q685.5-9.06 685.53-9.48 685.55-9.91 685.55-10.4L685.55-10.4Q685.55-12.48 685.12-14.37 684.7-16.26 683.88-17.88 683.06-19.51 681.86-20.85 680.67-22.19 679.15-23.14L679.15-23.14Q680.77-22.51 682.12-21.4 683.48-20.29 684.45-18.7 685.43-17.11 685.98-15.04 686.53-12.96 686.53-10.4L686.53-10.4Q686.53-10.21 686.52-9.91 686.5-9.62 686.48-9.25 686.45-8.89 686.42-8.51 686.38-8.13 686.33-7.76L686.33-7.76 663.26-7.76Q663.72-6.98 664.97-6.16 666.21-5.35 668.19-4.79L668.19-4.79Q666.97-4.79 665.91-5.08 664.85-5.37 663.98-5.88 663.11-6.4 662.47-7.12 661.82-7.84 661.45-8.69L661.45-8.69ZM659.26-13.45L678.15-13.45Q677.76-15.14 676.94-16.46 676.13-17.77 674.93-18.66 673.73-19.56 672.2-20.03 670.66-20.51 668.83-20.51L668.83-20.51Q666.85-20.51 665.23-19.98 663.6-19.46 662.38-18.52 661.16-17.58 660.37-16.28 659.57-14.99 659.26-13.45L659.26-13.45ZM662.6-14.5L661.48-14.5Q662.38-16.5 664.32-17.65 666.26-18.8 668.83-18.8L668.83-18.8Q669.88-18.8 670.87-18.63 671.85-18.46 672.7-18.1 673.54-17.75 674.17-17.24 674.81-16.72 675.17-16.06L675.17-16.06Q673.78-16.99 672.2-17.43 670.61-17.87 668.78-17.87L668.78-17.87Q666.65-17.87 665.04-16.99 663.43-16.11 662.6-14.5L662.6-14.5ZM656.72-1.07L656.72-1.07Q659.09 0.61 662.22 1.54 665.36 2.47 669.41 2.47L669.41 2.47Q673.37 2.47 676.82 1.56 680.28 0.66 683.06-1.2L683.06-1.2 683.72-0.49Q680.57 1.64 677.09 2.51 673.61 3.39 669.8 3.39L669.8 3.39Q664.85 3.39 661.59 2.2 658.33 1 656.72-1.07ZM712.25-8.74L712.25-19.41 706.88-19.41 706.88-23.56 712.25-23.56 712.25-28.49 717.5-30.69 717.5-23.56 729.64-23.56 729.64-19.41 717.5-19.41 717.5-7.76Q717.5-5.93 718.65-5.04 719.8-4.15 721.78-4.15L721.78-4.15 728.66-4.15 728.66 0 721.78 0Q719.8 0 718.07-0.43 716.33-0.85 715.04-1.87 713.74-2.88 713-4.55 712.25-6.23 712.25-8.74L712.25-8.74ZM719.26-25.02L719.26-29.35 720.24-29.79 720.24-25.02 719.26-25.02ZM719.21-6.76L719.21-17.97 731.4-17.97 731.4-22.46 732.37-22.46 732.37-17.04 720.19-17.04 720.19-5.79Q719.36-6.01 719.21-6.76L719.21-6.76ZM708.35-16.77L708.35-17.7 711.28-17.7 711.28-16.77 708.35-16.77ZM712.11-2.1L712.11-2.1Q712.89-1 713.85-0.27 714.82 0.46 716.01 0.9 717.21 1.34 718.63 1.53 720.04 1.71 721.73 1.71L721.73 1.71 730.42 1.71 730.42-3.05 731.4-3.05 731.4 2.64 721.61 2.64Q719.73 2.64 718.19 2.39 716.65 2.15 715.47 1.6 714.28 1.05 713.44 0.13 712.6-0.78 712.11-2.1ZM737.59-11.4L737.59-11.4Q737.59-14.06 738.74-16.42 739.89-18.77 741.95-20.52 744.01-22.27 746.9-23.28 749.78-24.29 753.22-24.29L753.22-24.29Q756.83-24.29 759.68-23.33 762.52-22.36 764.49-20.65 766.45-18.95 767.49-16.6 768.53-14.26 768.53-11.5L768.53-11.5Q768.53-8.84 767.39-6.59 766.26-4.35 764.17-2.72 762.08-1.1 759.16-0.18 756.25 0.73 752.66 0.73L752.66 0.73Q749.26 0.73 746.49-0.28 743.72-1.29 741.74-2.98 739.77-4.66 738.68-6.85 737.59-9.03 737.59-11.4ZM741.43-1.12L741.43-1.12Q743.8 0.59 746.66 1.51 749.53 2.44 753.15 2.44L753.15 2.44Q756.51 2.44 759.62 1.53 762.72 0.61 765.08-1.17 767.45-2.95 768.87-5.55 770.28-8.15 770.28-11.5L770.28-11.5Q770.28-13.13 769.83-14.81 769.38-16.48 768.56-18.02 767.75-19.56 766.57-20.89 765.4-22.22 763.96-23.14L763.96-23.14Q765.6-22.41 766.95-21.22 768.31-20.02 769.26-18.49 770.21-16.97 770.74-15.19 771.26-13.4 771.26-11.5L771.26-11.5Q771.26-9.11 770.58-7.07 769.89-5.03 768.69-3.38 767.48-1.73 765.8-0.46 764.13 0.81 762.13 1.65 760.13 2.49 757.87 2.93 755.61 3.37 753.27 3.37L753.27 3.37Q751.31 3.37 749.53 3.06 747.75 2.76 746.22 2.19 744.7 1.61 743.48 0.78 742.26-0.05 741.43-1.12ZM743.01-11.5L743.01-11.5Q743.01-9.62 743.73-8.07 744.45-6.52 745.77-5.41 747.09-4.3 748.93-3.69 750.78-3.08 753.02-3.08L753.02-3.08Q755.29-3.08 757.15-3.7 759.01-4.32 760.35-5.43 761.69-6.54 762.42-8.09 763.16-9.64 763.16-11.5L763.16-11.5Q763.16-13.33 762.42-14.95 761.69-16.58 760.37-17.81 759.05-19.04 757.21-19.76 755.37-20.48 753.15-20.48L753.15-20.48Q750.83-20.48 748.96-19.79 747.09-19.09 745.77-17.88 744.45-16.67 743.73-15.04 743.01-13.4 743.01-11.5ZM744.72-11.4L744.72-11.4Q744.72-12.94 745.33-14.29 745.94-15.65 747.05-16.64 748.17-17.63 749.72-18.2 751.27-18.77 753.15-18.77L753.15-18.77Q754.34-18.77 755.47-18.52 756.59-18.26 757.54-17.77 758.49-17.29 759.22-16.59 759.96-15.89 760.4-15.01L760.4-15.01Q758.79-16.48 757.04-17.16 755.29-17.85 753.1-17.85L753.1-17.85Q751.51-17.85 750.17-17.33 748.82-16.82 747.82-15.94 746.82-15.06 746.26-13.89 745.7-12.72 745.7-11.4L745.7-11.4Q745.7-10.3 745.97-9.35 746.24-8.4 746.88-7.58 747.53-6.76 748.6-6.1 749.68-5.44 751.29-4.93L751.29-4.93Q749.83-5.03 748.62-5.55 747.41-6.08 746.54-6.93 745.68-7.79 745.2-8.94 744.72-10.08 744.72-11.4ZM789.93 0L789.93-3.91 795.21-3.91 811.27-30.4 816.54-30.4 832.32-3.91 838.66-3.91 838.66 0 819.86 0 819.86-3.91 825.77-3.91 822.23-10.13 805.12-10.13 801.68-3.91 807.32-3.91 807.32 0 789.93 0ZM819.3-29.15L820.43-29.15 834.56-5.37 833.44-5.37 819.3-29.15ZM806.83-13.18L820.47-13.18 813.57-25.32 806.83-13.18ZM809.46-14.65L814-22.53 814.59-21.46 810.66-14.65 809.46-14.65ZM804.41-5.37L806.07-8.42 822.01-8.42 822.45-7.5 806.8-7.5 805.66-5.37 804.41-5.37ZM820.91 1.71L840.4 1.71 840.4-2.56 841.42-2.56 841.42 2.64 820.91 2.64 820.91 1.71ZM791.01 1.71L809.07 1.71 809.07-2.56 810.05-2.56 810.05 2.64 791.01 2.64 791.01 1.71ZM844.23-11.45L844.23-11.45Q844.23-13.72 845.18-15.93 846.13-18.14 848-19.89 849.87-21.63 852.63-22.72 855.38-23.8 858.97-23.8L858.97-23.8Q860.12-23.8 861.43-23.63 862.73-23.46 864.04-23.07 865.35-22.68 866.59-22.03 867.84-21.39 868.86-20.46L868.86-20.46 868.86-30.15 863.49-30.15 863.49-34.06 874.11-34.06 874.11-3.66 878.26-3.66 878.26 0 868.86 0 868.86-3.1Q866.96-1.25 864.27-0.26 861.59 0.73 858.44 0.73L858.44 0.73Q855.43 0.73 852.85-0.06 850.26-0.85 848.34-2.39 846.42-3.93 845.33-6.2 844.23-8.47 844.23-11.45ZM875.87-5.13L875.87-32.81 876.84-32.81 876.84-5.13 875.87-5.13ZM864.95-27.51L864.95-28.44 867.84-28.44 867.84-27.51 864.95-27.51ZM849.52-11.65L849.52-11.65Q849.52-9.67 850.17-8.08 850.82-6.49 852.03-5.37 853.24-4.25 854.96-3.64 856.68-3.03 858.85-3.03L858.85-3.03Q860-3.03 861.18-3.26 862.37-3.49 863.48-3.97 864.59-4.44 865.58-5.16 866.57-5.88 867.29-6.87 868.01-7.86 868.43-9.13 868.86-10.4 868.86-11.96L868.86-11.96Q868.86-13.7 868.06-15.17 867.25-16.65 865.89-17.72 864.54-18.8 862.73-19.41 860.93-20.02 858.92-20.02L858.92-20.02Q856.97-20.02 855.26-19.41 853.55-18.8 852.27-17.7 850.99-16.6 850.26-15.05 849.52-13.5 849.52-11.65ZM851.23-11.65L851.23-11.65Q851.23-13.04 851.78-14.23 852.33-15.43 853.33-16.33 854.33-17.24 855.76-17.75 857.19-18.26 858.92-18.26L858.92-18.26Q861.41-18.26 863.12-17.53 864.83-16.8 865.44-15.7L865.44-15.7Q864.12-16.55 862.48-16.94 860.83-17.33 858.92-17.33L858.92-17.33Q857.39-17.33 856.15-16.88 854.92-16.43 854.05-15.65 853.19-14.87 852.71-13.81 852.23-12.74 852.23-11.55L852.23-11.55Q852.23-6.93 857.44-4.76L857.44-4.76Q855.95-4.93 854.8-5.54 853.65-6.15 852.86-7.07 852.06-7.98 851.65-9.16 851.23-10.33 851.23-11.65ZM870.33 1.71L880.02 1.71 880.02-2.29 880.99-2.29 880.99 2.64 870.33 2.64 870.33 1.71ZM847.38-1.05L847.38-1.05Q848.38-0.24 849.65 0.4 850.92 1.05 852.36 1.5 853.8 1.95 855.35 2.2 856.9 2.44 858.46 2.44L858.46 2.44Q861.17 2.44 863.53 1.77 865.88 1.1 867.71-0.1L867.71-0.1 867.71 1.03Q865.88 2.12 863.48 2.75 861.07 3.37 858.48 3.37L858.48 3.37Q854.53 3.37 851.72 2.26 848.91 1.15 847.38-1.05ZM900.94 0L888.95-19.9 883.68-19.9 883.68-23.56 900.43-23.56 900.43-19.9 895.18-19.9 904.48-4 913.44-19.9 907.85-19.9 907.85-23.56 924.11-23.56 924.11-19.9 919.08-19.9 907.29 0 900.94 0ZM902.65 1.71L908.46 1.71 920.25-18.19 925.87-18.19 925.87-22.19 926.84-22.19 926.84-17.26 920.88-17.26 909.09 2.64 903.01 2.64 902.65 1.71ZM904.84-6.98L898.5-18.19 902.65-18.19 902.18-22.19 903.16-22.19 903.16-17.26 900.21-17.26 905.41-7.91 904.84-6.98ZM909.04-17.26L909.04-18.19 911.24-18.19 910.68-17.26 909.04-17.26ZM885.14-17.26L885.14-18.19 888.68-18.19 889.24-17.26 885.14-17.26ZM930.14-11.33L930.14-11.33Q930.14-13.92 931.09-16.26 932.04-18.6 933.94-20.39 935.85-22.17 938.68-23.23 941.51-24.29 945.25-24.29L945.25-24.29Q948.76-24.29 951.52-23.35 954.28-22.41 956.21-20.63 958.14-18.85 959.15-16.27 960.16-13.7 960.16-10.4L960.16-10.4 935.48-10.4Q935.7-8.64 936.62-7.28 937.53-5.91 938.95-4.97 940.36-4.03 942.16-3.54 943.95-3.05 945.91-3.05L945.91-3.05Q947.49-3.05 949.14-3.31 950.79-3.56 952.25-4 953.72-4.44 954.87-4.99 956.01-5.54 956.62-6.13L956.62-6.13 957.55-6.13 959.85-3.64Q957.33-1.49 953.73-0.38 950.13 0.73 945.78 0.73L945.78 0.73Q942 0.73 939.08-0.2 936.17-1.12 934.18-2.76 932.19-4.39 931.16-6.59 930.14-8.79 930.14-11.33ZM937.83-8.69L961.82-8.69Q961.87-9.06 961.9-9.48 961.92-9.91 961.92-10.4L961.92-10.4Q961.92-12.48 961.5-14.37 961.07-16.26 960.25-17.88 959.43-19.51 958.24-20.85 957.04-22.19 955.53-23.14L955.53-23.14Q957.14-22.51 958.49-21.4 959.85-20.29 960.82-18.7 961.8-17.11 962.35-15.04 962.9-12.96 962.9-10.4L962.9-10.4Q962.9-10.21 962.89-9.91 962.87-9.62 962.85-9.25 962.83-8.89 962.79-8.51 962.75-8.13 962.7-7.76L962.7-7.76 939.63-7.76Q940.1-6.98 941.34-6.16 942.59-5.35 944.56-4.79L944.56-4.79Q943.34-4.79 942.28-5.08 941.22-5.37 940.35-5.88 939.49-6.4 938.84-7.12 938.19-7.84 937.83-8.69L937.83-8.69ZM935.63-13.45L954.52-13.45Q954.13-15.14 953.32-16.46 952.5-17.77 951.3-18.66 950.11-19.56 948.57-20.03 947.03-20.51 945.2-20.51L945.2-20.51Q943.22-20.51 941.6-19.98 939.97-19.46 938.75-18.52 937.53-17.58 936.74-16.28 935.95-14.99 935.63-13.45L935.63-13.45ZM938.97-14.5L937.85-14.5Q938.75-16.5 940.69-17.65 942.64-18.8 945.2-18.8L945.2-18.8Q946.25-18.8 947.24-18.63 948.23-18.46 949.07-18.1 949.91-17.75 950.55-17.24 951.18-16.72 951.55-16.06L951.55-16.06Q950.15-16.99 948.57-17.43 946.98-17.87 945.15-17.87L945.15-17.87Q943.03-17.87 941.41-16.99 939.8-16.11 938.97-14.5L938.97-14.5ZM933.09-1.07L933.09-1.07Q935.46 0.61 938.59 1.54 941.73 2.47 945.78 2.47L945.78 2.47Q949.74 2.47 953.19 1.56 956.65 0.66 959.43-1.2L959.43-1.2 960.09-0.49Q956.94 1.64 953.46 2.51 949.98 3.39 946.18 3.39L946.18 3.39Q941.22 3.39 937.96 2.2 934.7 1 933.09-1.07ZM969.29 0L969.29-3.66 974.66-3.66 974.66-19.41 969.29-19.41 969.29-23.56 979.91-23.56 979.91-19.87Q980.67-20.8 981.73-21.61 982.79-22.41 984.11-23.01 985.43-23.61 986.97-23.95 988.51-24.29 990.19-24.29L990.19-24.29Q992.73-24.29 994.81-23.57 996.88-22.85 998.35-21.35 999.81-19.85 1000.6-17.57 1001.4-15.28 1001.4-12.16L1001.4-12.16 1001.4-3.66 1006.77-3.66 1006.77 0 992 0 992-3.66 996.15-3.66 996.15-10.08Q996.15-12.06 995.97-13.61 995.78-15.16 995.44-16.04L995.44-16.04Q995-17.16 994.33-17.94 993.66-18.73 992.82-19.21 991.97-19.7 990.97-19.92 989.97-20.14 988.85-20.14L988.85-20.14Q987.65-20.14 986.37-19.7 985.09-19.26 983.88-18.47 982.67-17.68 981.63-16.6 980.6-15.53 979.91-14.28L979.91-14.28 979.91-3.66 984.06-3.66 984.06 0 969.29 0ZM1003.16-5.13L1003.16-11.99Q1003.16-14.14 1002.83-15.98 1002.5-17.82 1001.84-19.3 1001.18-20.78 1000.21-21.85 999.25-22.92 997.98-23.56L997.98-23.56Q999.64-23.14 1000.81-22.16 1001.98-21.17 1002.72-19.65 1003.45-18.14 1003.79-16.16 1004.13-14.18 1004.13-11.82L1004.13-11.82 1004.13-5.13 1003.16-5.13ZM981.67-5.13L981.67-13.67Q982.28-14.75 983.12-15.63 983.97-16.5 984.95-17.13 985.94-17.75 987.03-18.09 988.12-18.43 989.19-18.43L989.19-18.43Q990.87-18.43 991.92-17.8 992.97-17.16 993.46-16.19L993.46-16.19Q992.71-16.75 991.69-17.14 990.68-17.53 989.14-17.53L989.14-17.53Q988.19-17.53 987.21-17.18 986.24-16.82 985.36-16.24 984.48-15.65 983.77-14.89 983.06-14.14 982.65-13.35L982.65-13.35 982.65-5.13 981.67-5.13ZM970.76-16.77L970.76-17.7 973.64-17.7 973.64-16.77 970.76-16.77ZM993.46 1.71L1008.53 1.71 1008.53-2.29 1009.5-2.29 1009.5 2.64 993.46 2.64 993.46 1.71ZM970.76 1.71L985.82 1.71 985.82-2.29 986.8-2.29 986.8 2.64 970.76 2.64 970.76 1.71ZM1017.73-8.74L1017.73-19.41 1012.36-19.41 1012.36-23.56 1017.73-23.56 1017.73-28.49 1022.98-30.69 1022.98-23.56 1035.11-23.56 1035.11-19.41 1022.98-19.41 1022.98-7.76Q1022.98-5.93 1024.12-5.04 1025.27-4.15 1027.25-4.15L1027.25-4.15 1034.13-4.15 1034.13 0 1027.25 0Q1025.27 0 1023.54-0.43 1021.8-0.85 1020.51-1.87 1019.22-2.88 1018.47-4.55 1017.73-6.23 1017.73-8.74L1017.73-8.74ZM1024.73-25.02L1024.73-29.35 1025.71-29.79 1025.71-25.02 1024.73-25.02ZM1024.69-6.76L1024.69-17.97 1036.87-17.97 1036.87-22.46 1037.85-22.46 1037.85-17.04 1025.66-17.04 1025.66-5.79Q1024.83-6.01 1024.69-6.76L1024.69-6.76ZM1013.82-16.77L1013.82-17.7 1016.75-17.7 1016.75-16.77 1013.82-16.77ZM1017.58-2.1L1017.58-2.1Q1018.36-1 1019.33-0.27 1020.29 0.46 1021.49 0.9 1022.68 1.34 1024.1 1.53 1025.52 1.71 1027.2 1.71L1027.2 1.71 1035.89 1.71 1035.89-3.05 1036.87-3.05 1036.87 2.64 1027.08 2.64Q1025.2 2.64 1023.66 2.39 1022.12 2.15 1020.94 1.6 1019.75 1.05 1018.91 0.13 1018.07-0.78 1017.58-2.1ZM1046.34-5.47L1046.34-5.47Q1045.85-6.71 1045.62-8.18 1045.39-9.64 1045.39-11.4L1045.39-11.4 1045.39-19.41 1041.24-19.41 1041.24-23.56 1050.64-23.56 1050.64-13.48Q1050.64-11.5 1050.82-9.95 1051-8.4 1051.34-7.52L1051.34-7.52Q1051.78-6.4 1052.49-5.62 1053.2-4.83 1054.09-4.35 1054.98-3.86 1056.02-3.64 1057.06-3.42 1058.18-3.42L1058.18-3.42Q1059.38-3.42 1060.66-3.86 1061.94-4.3 1063.14-5.08 1064.33-5.86 1065.37-6.93 1066.41-8.01 1067.11-9.25L1067.11-9.25 1067.11-19.41 1061.74-19.41 1061.74-23.56 1072.36-23.56 1072.36-3.66 1076.51-3.66 1076.51 0 1067.11 0 1067.11-3.71Q1066.33-2.76 1065.22-1.95 1064.11-1.15 1062.76-0.55 1061.4 0.05 1059.84 0.39 1058.28 0.73 1056.59 0.73L1056.59 0.73Q1052.95 0.73 1050.28-0.79 1047.61-2.32 1046.34-5.47ZM1074.07-5.13L1074.07-22.31 1075.05-22.31 1075.05-5.13 1074.07-5.13ZM1052.39-12.01L1052.39-22.31 1053.37-22.31 1053.37-12.28Q1053.37-10.38 1053.74-9.11 1054.1-7.84 1054.71-7.03 1055.32-6.23 1056.1-5.79 1056.89-5.35 1057.72-5.1L1057.72-5.1Q1055.15-5.13 1053.77-6.8 1052.39-8.47 1052.39-12.01L1052.39-12.01ZM1063.21-16.77L1063.21-17.7 1066.09-17.7 1066.09-16.77 1063.21-16.77ZM1042.7-16.77L1042.7-17.7 1044.36-17.7 1044.36-16.77 1042.7-16.77ZM1068.58 1.71L1078.27 1.71 1078.27-2.29 1079.25-2.29 1079.25 2.64 1068.58 2.64 1068.58 1.71ZM1046.61-1.64L1046.61-1.64Q1048.51 0.42 1050.9 1.43 1053.3 2.44 1056.62 2.44L1056.62 2.44Q1059.57 2.44 1061.9 1.67 1064.23 0.9 1066.14-0.42L1066.14-0.42 1066.14 0.71Q1063.99 2.1 1061.67 2.73 1059.35 3.37 1056.64 3.37L1056.64 3.37Q1052.95 3.37 1050.37 2.09 1047.78 0.81 1046.61-1.64ZM1085.23 0L1085.23-3.66 1090.6-3.66 1090.6-19.41 1085.23-19.41 1085.23-23.56 1095.85-23.56 1095.85-19.48Q1096.6-20.46 1097.67-21.34 1098.73-22.22 1100.07-22.88 1101.41-23.54 1103-23.91 1104.59-24.29 1106.39-24.29L1106.39-24.29Q1106.93-24.29 1107.74-24.26 1108.54-24.22 1109.28-24.1L1109.28-24.1 1109.28-19.31Q1108.42-19.51 1107.59-19.58 1106.76-19.65 1105.98-19.65L1105.98-19.65Q1104.03-19.65 1102.28-19.03 1100.54-18.41 1099.17-17.22 1097.8-16.04 1096.92-14.33 1096.04-12.62 1095.85-10.42L1095.85-10.42 1095.85-3.66 1104.64-3.66 1104.64 0 1085.23 0ZM1097.56-5.13L1097.56-8.23Q1097.56-10.52 1098.14-12.33 1098.73-14.14 1099.82-15.38 1100.9-16.63 1102.46-17.29 1104.03-17.94 1105.98-17.94L1105.98-17.94Q1106.39-17.94 1107.03-17.88 1107.66-17.82 1108.36-17.7 1109.06-17.58 1109.76-17.4 1110.47-17.21 1111.03-16.97L1111.03-16.97 1111.03-22.73 1112.01-22.73 1112.01-15.75Q1111.33-16.04 1110.53-16.27 1109.74-16.5 1108.92-16.67 1108.1-16.85 1107.35-16.93 1106.59-17.02 1105.98-17.02L1105.98-17.02Q1104.2-17.02 1102.82-16.43 1101.44-15.84 1100.49-14.75 1099.53-13.65 1099.03-12.06 1098.53-10.47 1098.53-8.47L1098.53-8.47 1098.53-5.13 1097.56-5.13ZM1086.69-16.77L1086.69-17.7 1089.57-17.7 1089.57-16.77 1086.69-16.77ZM1086.69 1.71L1106.39 1.71 1106.39-2.29 1107.37-2.29 1107.37 2.64 1086.69 2.64 1086.69 1.71ZM1116.52-11.33L1116.52-11.33Q1116.52-13.92 1117.48-16.26 1118.43-18.6 1120.33-20.39 1122.24-22.17 1125.07-23.23 1127.9-24.29 1131.64-24.29L1131.64-24.29Q1135.15-24.29 1137.91-23.35 1140.67-22.41 1142.6-20.63 1144.53-18.85 1145.54-16.27 1146.55-13.7 1146.55-10.4L1146.55-10.4 1121.87-10.4Q1122.09-8.64 1123.01-7.28 1123.92-5.91 1125.34-4.97 1126.75-4.03 1128.55-3.54 1130.34-3.05 1132.3-3.05L1132.3-3.05Q1133.88-3.05 1135.53-3.31 1137.18-3.56 1138.64-4 1140.11-4.44 1141.26-4.99 1142.4-5.54 1143.01-6.13L1143.01-6.13 1143.94-6.13 1146.24-3.64Q1143.72-1.49 1140.12-0.38 1136.52 0.73 1132.17 0.73L1132.17 0.73Q1128.39 0.73 1125.47-0.2 1122.55-1.12 1120.56-2.76 1118.57-4.39 1117.55-6.59 1116.52-8.79 1116.52-11.33ZM1124.21-8.69L1148.21-8.69Q1148.26-9.06 1148.29-9.48 1148.31-9.91 1148.31-10.4L1148.31-10.4Q1148.31-12.48 1147.88-14.37 1147.46-16.26 1146.64-17.88 1145.82-19.51 1144.62-20.85 1143.43-22.19 1141.91-23.14L1141.91-23.14Q1143.53-22.51 1144.88-21.4 1146.24-20.29 1147.21-18.7 1148.19-17.11 1148.74-15.04 1149.29-12.96 1149.29-10.4L1149.29-10.4Q1149.29-10.21 1149.28-9.91 1149.26-9.62 1149.24-9.25 1149.21-8.89 1149.18-8.51 1149.14-8.13 1149.09-7.76L1149.09-7.76 1126.02-7.76Q1126.48-6.98 1127.73-6.16 1128.98-5.35 1130.95-4.79L1130.95-4.79Q1129.73-4.79 1128.67-5.08 1127.61-5.37 1126.74-5.88 1125.87-6.4 1125.23-7.12 1124.58-7.84 1124.21-8.69L1124.21-8.69ZM1122.02-13.45L1140.91-13.45Q1140.52-15.14 1139.71-16.46 1138.89-17.77 1137.69-18.66 1136.49-19.56 1134.96-20.03 1133.42-20.51 1131.59-20.51L1131.59-20.51Q1129.61-20.51 1127.99-19.98 1126.36-19.46 1125.14-18.52 1123.92-17.58 1123.13-16.28 1122.33-14.99 1122.02-13.45L1122.02-13.45ZM1125.36-14.5L1124.24-14.5Q1125.14-16.5 1127.08-17.65 1129.02-18.8 1131.59-18.8L1131.59-18.8Q1132.64-18.8 1133.63-18.63 1134.61-18.46 1135.46-18.1 1136.3-17.75 1136.93-17.24 1137.57-16.72 1137.94-16.06L1137.94-16.06Q1136.54-16.99 1134.96-17.43 1133.37-17.87 1131.54-17.87L1131.54-17.87Q1129.41-17.87 1127.8-16.99 1126.19-16.11 1125.36-14.5L1125.36-14.5ZM1119.48-1.07L1119.48-1.07Q1121.85 0.61 1124.98 1.54 1128.12 2.47 1132.17 2.47L1132.17 2.47Q1136.13 2.47 1139.58 1.56 1143.04 0.66 1145.82-1.2L1145.82-1.2 1146.48-0.49Q1143.33 1.64 1139.85 2.51 1136.37 3.39 1132.56 3.39L1132.56 3.39Q1127.61 3.39 1124.35 2.2 1121.09 1 1119.48-1.07ZM1170.52-11.69L1170.52-11.69Q1170.52-13.96 1171.48-16.21 1172.43-18.46 1174.29-20.25 1176.16-22.05 1178.92-23.17 1181.68-24.29 1185.27-24.29L1185.27-24.29Q1186.42-24.29 1187.72-24.12 1189.03-23.95 1190.33-23.56 1191.64-23.17 1192.89-22.52 1194.13-21.88 1195.16-20.95L1195.16-20.95 1195.16-23.56 1205.65-23.56 1205.65-19.41 1200.28-19.41 1200.28-3.66 1205.65-3.66 1205.65 0 1195.16 0 1195.16-3.17Q1194.2-2.22 1193-1.49 1191.79-0.76 1190.43-0.27 1189.08 0.22 1187.63 0.48 1186.17 0.73 1184.73 0.73L1184.73 0.73Q1181.22 0.73 1178.56-0.27 1175.89-1.27 1174.11-2.97 1172.33-4.66 1171.43-6.92 1170.52-9.18 1170.52-11.69ZM1202.04-5.13L1202.04-17.7 1207.41-17.7 1207.41-21.7 1208.39-21.7 1208.39-16.77 1203.02-16.77 1203.02-5.13 1202.04-5.13ZM1175.82-11.89L1175.82-11.89Q1175.82-9.86 1176.54-8.23 1177.26-6.59 1178.51-5.44 1179.75-4.3 1181.46-3.66 1183.17-3.03 1185.15-3.03L1185.15-3.03Q1186.29-3.03 1187.48-3.26 1188.66-3.49 1189.77-3.97 1190.88-4.44 1191.87-5.16 1192.86-5.88 1193.58-6.87 1194.3-7.86 1194.73-9.13 1195.16-10.4 1195.16-11.96L1195.16-11.96Q1195.16-13.7 1194.35-15.25 1193.55-16.8 1192.19-17.97 1190.84-19.14 1189.03-19.82 1187.22-20.51 1185.22-20.51L1185.22-20.51Q1183.22-20.51 1181.5-19.9 1179.78-19.29 1178.52-18.16 1177.26-17.04 1176.54-15.44 1175.82-13.84 1175.82-11.89ZM1177.51-11.77L1177.51-11.77Q1177.51-13.31 1178.08-14.59 1178.65-15.87 1179.68-16.81 1180.7-17.75 1182.12-18.27 1183.54-18.8 1185.22-18.8L1185.22-18.8Q1186.49-18.8 1187.52-18.52 1188.54-18.24 1189.3-17.83 1190.05-17.43 1190.54-17 1191.03-16.58 1191.23-16.26L1191.23-16.26Q1189.91-16.99 1188.52-17.43 1187.12-17.87 1185.22-17.87L1185.22-17.87Q1183.68-17.87 1182.45-17.37 1181.22-16.87 1180.34-16.02 1179.46-15.16 1178.98-14.04 1178.51-12.92 1178.51-11.67L1178.51-11.67Q1178.51-10.5 1178.77-9.47 1179.04-8.45 1179.64-7.58 1180.24-6.71 1181.2-5.99 1182.17-5.27 1183.54-4.74L1183.54-4.74Q1182-5 1180.86-5.65 1179.73-6.3 1178.98-7.23 1178.24-8.15 1177.87-9.31 1177.51-10.47 1177.51-11.77ZM1196.62 1.71L1207.41 1.71 1207.41-2.29 1208.39-2.29 1208.39 2.64 1196.62 2.64 1196.62 1.71ZM1173.67-1.05L1173.67-1.05Q1174.67-0.24 1175.94 0.4 1177.21 1.05 1178.65 1.5 1180.09 1.95 1181.64 2.2 1183.19 2.44 1184.76 2.44L1184.76 2.44Q1187.47 2.44 1189.82 1.77 1192.18 1.1 1194.01-0.1L1194.01-0.1 1194.01 1.03Q1192.18 2.12 1189.77 2.75 1187.37 3.37 1184.78 3.37L1184.78 3.37Q1183 3.37 1181.29 3.09 1179.58 2.81 1178.12 2.25 1176.65 1.68 1175.5 0.85 1174.36 0.02 1173.67-1.05ZM1215.27 0L1215.27-3.66 1220.64-3.66 1220.64-19.41 1215.27-19.41 1215.27-23.56 1225.89-23.56 1225.89-19.87Q1226.65-20.8 1227.71-21.61 1228.77-22.41 1230.09-23.01 1231.41-23.61 1232.95-23.95 1234.49-24.29 1236.17-24.29L1236.17-24.29Q1238.71-24.29 1240.78-23.57 1242.86-22.85 1244.32-21.35 1245.79-19.85 1246.58-17.57 1247.38-15.28 1247.38-12.16L1247.38-12.16 1247.38-3.66 1252.75-3.66 1252.75 0 1237.98 0 1237.98-3.66 1242.13-3.66 1242.13-10.08Q1242.13-12.06 1241.94-13.61 1241.76-15.16 1241.42-16.04L1241.42-16.04Q1240.98-17.16 1240.31-17.94 1239.64-18.73 1238.79-19.21 1237.95-19.7 1236.95-19.92 1235.95-20.14 1234.83-20.14L1234.83-20.14Q1233.63-20.14 1232.35-19.7 1231.07-19.26 1229.86-18.47 1228.65-17.68 1227.61-16.6 1226.58-15.53 1225.89-14.28L1225.89-14.28 1225.89-3.66 1230.04-3.66 1230.04 0 1215.27 0ZM1249.13-5.13L1249.13-11.99Q1249.13-14.14 1248.8-15.98 1248.47-17.82 1247.82-19.3 1247.16-20.78 1246.19-21.85 1245.23-22.92 1243.96-23.56L1243.96-23.56Q1245.62-23.14 1246.79-22.16 1247.96-21.17 1248.69-19.65 1249.43-18.14 1249.77-16.16 1250.11-14.18 1250.11-11.82L1250.11-11.82 1250.11-5.13 1249.13-5.13ZM1227.65-5.13L1227.65-13.67Q1228.26-14.75 1229.1-15.63 1229.94-16.5 1230.93-17.13 1231.92-17.75 1233.01-18.09 1234.09-18.43 1235.17-18.43L1235.17-18.43Q1236.85-18.43 1237.9-17.8 1238.95-17.16 1239.44-16.19L1239.44-16.19Q1238.68-16.75 1237.67-17.14 1236.66-17.53 1235.12-17.53L1235.12-17.53Q1234.17-17.53 1233.19-17.18 1232.21-16.82 1231.34-16.24 1230.46-15.65 1229.75-14.89 1229.04-14.14 1228.63-13.35L1228.63-13.35 1228.63-5.13 1227.65-5.13ZM1216.74-16.77L1216.74-17.7 1219.62-17.7 1219.62-16.77 1216.74-16.77ZM1239.44 1.71L1254.5 1.71 1254.5-2.29 1255.48-2.29 1255.48 2.64 1239.44 2.64 1239.44 1.71ZM1216.74 1.71L1231.8 1.71 1231.8-2.29 1232.78-2.29 1232.78 2.64 1216.74 2.64 1216.74 1.71ZM1259.21-11.45L1259.21-11.45Q1259.21-13.72 1260.17-15.93 1261.12-18.14 1262.99-19.89 1264.85-21.63 1267.61-22.72 1270.37-23.8 1273.96-23.8L1273.96-23.8Q1275.11-23.8 1276.41-23.63 1277.72-23.46 1279.03-23.07 1280.33-22.68 1281.58-22.03 1282.82-21.39 1283.85-20.46L1283.85-20.46 1283.85-30.15 1278.48-30.15 1278.48-34.06 1289.1-34.06 1289.1-3.66 1293.25-3.66 1293.25 0 1283.85 0 1283.85-3.1Q1281.94-1.25 1279.26-0.26 1276.57 0.73 1273.42 0.73L1273.42 0.73Q1270.42 0.73 1267.83-0.06 1265.24-0.85 1263.33-2.39 1261.41-3.93 1260.31-6.2 1259.21-8.47 1259.21-11.45ZM1290.85-5.13L1290.85-32.81 1291.83-32.81 1291.83-5.13 1290.85-5.13ZM1279.94-27.51L1279.94-28.44 1282.82-28.44 1282.82-27.51 1279.94-27.51ZM1264.51-11.65L1264.51-11.65Q1264.51-9.67 1265.16-8.08 1265.81-6.49 1267.01-5.37 1268.22-4.25 1269.94-3.64 1271.67-3.03 1273.84-3.03L1273.84-3.03Q1274.99-3.03 1276.17-3.26 1277.35-3.49 1278.46-3.97 1279.58-4.44 1280.56-5.16 1281.55-5.88 1282.27-6.87 1282.99-7.86 1283.42-9.13 1283.85-10.4 1283.85-11.96L1283.85-11.96Q1283.85-13.7 1283.04-15.17 1282.24-16.65 1280.88-17.72 1279.53-18.8 1277.72-19.41 1275.91-20.02 1273.91-20.02L1273.91-20.02Q1271.96-20.02 1270.25-19.41 1268.54-18.8 1267.26-17.7 1265.98-16.6 1265.24-15.05 1264.51-13.5 1264.51-11.65ZM1266.22-11.65L1266.22-11.65Q1266.22-13.04 1266.77-14.23 1267.32-15.43 1268.32-16.33 1269.32-17.24 1270.75-17.75 1272.18-18.26 1273.91-18.26L1273.91-18.26Q1276.4-18.26 1278.11-17.53 1279.82-16.8 1280.43-15.7L1280.43-15.7Q1279.11-16.55 1277.46-16.94 1275.82-17.33 1273.91-17.33L1273.91-17.33Q1272.37-17.33 1271.14-16.88 1269.91-16.43 1269.04-15.65 1268.17-14.87 1267.7-13.81 1267.22-12.74 1267.22-11.55L1267.22-11.55Q1267.22-6.93 1272.42-4.76L1272.42-4.76Q1270.93-4.93 1269.79-5.54 1268.64-6.15 1267.84-7.07 1267.05-7.98 1266.64-9.16 1266.22-10.33 1266.22-11.65ZM1285.31 1.71L1295.01 1.71 1295.01-2.29 1295.98-2.29 1295.98 2.64 1285.31 2.64 1285.31 1.71ZM1262.36-1.05L1262.36-1.05Q1263.36-0.24 1264.63 0.4 1265.9 1.05 1267.34 1.5 1268.78 1.95 1270.33 2.2 1271.89 2.44 1273.45 2.44L1273.45 2.44Q1276.16 2.44 1278.51 1.77 1280.87 1.1 1282.7-0.1L1282.7-0.1 1282.7 1.03Q1280.87 2.12 1278.46 2.75 1276.06 3.37 1273.47 3.37L1273.47 3.37Q1269.52 3.37 1266.71 2.26 1263.9 1.15 1262.36-1.05ZM1317.44 0L1317.44-3.91 1323.81-3.91 1323.81-26.49 1317.07-26.49 1317.07-30.4 1334.6-30.4Q1337.19-30.4 1339.23-30.35 1341.26-30.3 1342.82-30.22 1344.37-30.15 1345.51-30.03 1346.66-29.91 1347.49-29.76L1347.49-29.76Q1349.49-29.39 1350.9-28.71 1352.3-28.03 1353.18-27.08 1354.06-26.12 1354.46-24.94 1354.86-23.75 1354.86-22.39L1354.86-22.39Q1354.86-21.41 1354.45-20.4 1354.03-19.38 1353.17-18.47 1352.3-17.55 1350.99-16.8 1349.69-16.04 1347.93-15.58L1347.93-15.58Q1349.71-15.36 1351.12-14.71 1352.52-14.06 1353.48-13.12 1354.45-12.18 1354.95-11.01 1355.45-9.84 1355.45-8.57L1355.45-8.57Q1355.45-7.08 1355.03-5.82 1354.62-4.57 1353.68-3.56 1352.74-2.56 1351.23-1.84 1349.71-1.12 1347.51-0.71L1347.51-0.71Q1345.15-0.27 1342.08-0.13 1339.02 0 1335.01 0L1335.01 0 1317.44 0ZM1319 1.71L1335.01 1.71Q1338.9 1.71 1342.16 1.62 1345.42 1.54 1347.86 1.05L1347.86 1.05Q1350.59 0.51 1352.4-0.5 1354.2-1.51 1355.27-2.81 1356.33-4.1 1356.76-5.62 1357.18-7.13 1357.18-8.67L1357.18-8.67Q1357.18-9.74 1356.87-10.78 1356.55-11.82 1355.89-12.72 1355.23-13.62 1354.2-14.37 1353.18-15.11 1351.76-15.6L1351.76-15.6Q1354.28-16.85 1355.45-18.54 1356.62-20.24 1356.62-22.39L1356.62-22.39Q1356.62-24.51 1355.47-26.43 1354.33-28.34 1351.71-29.66L1351.71-29.66Q1353.18-29.3 1354.28-28.6 1355.38-27.91 1356.12-26.98 1356.87-26.05 1357.23-24.93 1357.6-23.8 1357.6-22.58L1357.6-22.58Q1357.6-20.36 1356.69-18.71 1355.79-17.07 1353.79-15.65L1353.79-15.65Q1356.13-14.4 1357.15-12.61 1358.16-10.82 1358.16-8.67L1358.16-8.67Q1358.16-6.76 1357.62-5.07 1357.09-3.37 1355.88-1.99 1354.67-0.61 1352.75 0.4 1350.84 1.42 1348.05 1.95L1348.05 1.95Q1345.59 2.44 1342.4 2.54 1339.21 2.64 1335.01 2.64L1335.01 2.64 1319 2.64 1319 1.71ZM1329.38-16.97L1338.43-16.97Q1341.44-16.97 1343.4-17.26 1345.37-17.55 1346.54-18.18 1347.71-18.8 1348.19-19.74 1348.66-20.68 1348.66-22L1348.66-22Q1348.66-23.32 1347.83-24.37 1347-25.42 1345.17-25.98L1345.17-25.98Q1343.93-26.34 1342.29-26.42 1340.65-26.49 1338.43-26.49L1338.43-26.49 1329.38-26.49 1329.38-16.97ZM1331.13-18.43L1331.13-24.78 1338.43-24.78Q1340.29-24.78 1341.63-24.69 1342.97-24.61 1343.93-24.39 1344.88-24.17 1345.54-23.82 1346.2-23.46 1346.71-22.92L1346.71-22.92Q1346.22-23.14 1345.55-23.32 1344.88-23.49 1343.9-23.61 1342.93-23.73 1341.59-23.79 1340.26-23.85 1338.43-23.85L1338.43-23.85 1332.11-23.85 1332.11-18.43 1331.13-18.43ZM1318.54-23.8L1318.54-24.78 1322.78-24.78 1322.78-23.8 1318.54-23.8ZM1329.38-3.91L1338.9-3.91Q1341.41-3.91 1343.22-4.04 1345.02-4.17 1346.34-4.66L1346.34-4.66Q1347.17-4.98 1347.72-5.42 1348.27-5.86 1348.59-6.38 1348.91-6.91 1349.03-7.52 1349.15-8.13 1349.15-8.79L1349.15-8.79Q1349.15-10.4 1348.16-11.58 1347.17-12.77 1345.1-13.38L1345.1-13.38Q1343.83-13.75 1342.19-13.83 1340.56-13.92 1338.48-13.92L1338.48-13.92 1329.38-13.92 1329.38-3.91ZM1331.13-5.37L1331.13-12.21 1338.43-12.21Q1340.29-12.21 1341.7-12.08 1343.12-11.96 1344.16-11.71 1345.2-11.45 1345.93-11.07 1346.66-10.69 1347.17-10.16L1347.17-10.16Q1346.54-10.45 1345.82-10.66 1345.1-10.86 1344.1-11.01 1343.1-11.16 1341.73-11.22 1340.36-11.28 1338.43-11.28L1338.43-11.28 1332.11-11.28 1332.11-5.37 1331.13-5.37ZM1364.04-11.33L1364.04-11.33Q1364.04-13.92 1364.99-16.26 1365.95-18.6 1367.85-20.39 1369.75-22.17 1372.59-23.23 1375.42-24.29 1379.15-24.29L1379.15-24.29Q1382.67-24.29 1385.43-23.35 1388.19-22.41 1390.11-20.63 1392.04-18.85 1393.06-16.27 1394.07-13.7 1394.07-10.4L1394.07-10.4 1369.39-10.4Q1369.61-8.64 1370.52-7.28 1371.44-5.91 1372.85-4.97 1374.27-4.03 1376.06-3.54 1377.86-3.05 1379.81-3.05L1379.81-3.05Q1381.4-3.05 1383.05-3.31 1384.7-3.56 1386.16-4 1387.62-4.44 1388.77-4.99 1389.92-5.54 1390.53-6.13L1390.53-6.13 1391.46-6.13 1393.75-3.64Q1391.24-1.49 1387.64-0.38 1384.04 0.73 1379.69 0.73L1379.69 0.73Q1375.91 0.73 1372.99-0.2 1370.07-1.12 1368.08-2.76 1366.09-4.39 1365.07-6.59 1364.04-8.79 1364.04-11.33ZM1371.73-8.69L1395.73-8.69Q1395.78-9.06 1395.8-9.48 1395.83-9.91 1395.83-10.4L1395.83-10.4Q1395.83-12.48 1395.4-14.37 1394.97-16.26 1394.16-17.88 1393.34-19.51 1392.14-20.85 1390.95-22.19 1389.43-23.14L1389.43-23.14Q1391.04-22.51 1392.4-21.4 1393.75-20.29 1394.73-18.7 1395.71-17.11 1396.26-15.04 1396.8-12.96 1396.8-10.4L1396.8-10.4Q1396.8-10.21 1396.79-9.91 1396.78-9.62 1396.76-9.25 1396.73-8.89 1396.69-8.51 1396.66-8.13 1396.61-7.76L1396.61-7.76 1373.54-7.76Q1374-6.98 1375.25-6.16 1376.49-5.35 1378.47-4.79L1378.47-4.79Q1377.25-4.79 1376.19-5.08 1375.12-5.37 1374.26-5.88 1373.39-6.4 1372.74-7.12 1372.1-7.84 1371.73-8.69L1371.73-8.69ZM1369.53-13.45L1388.43-13.45Q1388.04-15.14 1387.22-16.46 1386.4-17.77 1385.21-18.66 1384.01-19.56 1382.47-20.03 1380.94-20.51 1379.1-20.51L1379.1-20.51Q1377.13-20.51 1375.5-19.98 1373.88-19.46 1372.66-18.52 1371.44-17.58 1370.64-16.28 1369.85-14.99 1369.53-13.45L1369.53-13.45ZM1372.88-14.5L1371.76-14.5Q1372.66-16.5 1374.6-17.65 1376.54-18.8 1379.1-18.8L1379.1-18.8Q1380.15-18.8 1381.14-18.63 1382.13-18.46 1382.97-18.1 1383.82-17.75 1384.45-17.24 1385.09-16.72 1385.45-16.06L1385.45-16.06Q1384.06-16.99 1382.47-17.43 1380.89-17.87 1379.06-17.87L1379.06-17.87Q1376.93-17.87 1375.32-16.99 1373.71-16.11 1372.88-14.5L1372.88-14.5ZM1366.99-1.07L1366.99-1.07Q1369.36 0.61 1372.5 1.54 1375.64 2.47 1379.69 2.47L1379.69 2.47Q1383.65 2.47 1387.1 1.56 1390.55 0.66 1393.34-1.2L1393.34-1.2 1394-0.49Q1390.85 1.64 1387.37 2.51 1383.89 3.39 1380.08 3.39L1380.08 3.39Q1375.12 3.39 1371.87 2.2 1368.61 1 1366.99-1.07ZM1409.25 7.86L1415.45 7.86 1419.19 0.9 1405.57-19.9 1400.34-19.9 1400.34-23.56 1417.02-23.56 1417.02-19.9 1411.84-19.9 1421.92-4.17 1430.37-19.9 1424.44-19.9 1424.44-23.56 1440.7-23.56 1440.7-19.9 1435.74-19.9 1418.6 11.52 1409.25 11.52 1409.25 7.86ZM1410.72 13.23L1419.87 13.23 1437.04-18.19 1442.46-18.19 1442.46-22.19 1443.43-22.19 1443.43-17.26 1437.6-17.26 1420.48 14.16 1410.72 14.16 1410.72 13.23ZM1422.12-7.5L1415.28-18.19 1418.77-18.19 1418.77-22.19 1419.75-22.19 1419.75-17.26 1417.02-17.26 1422.66-8.47 1422.12-7.5ZM1425.63-17.26L1425.63-18.19 1428.17-18.19 1427.69-17.26 1425.63-17.26ZM1401.81-17.26L1401.81-18.19 1405.35-18.19 1405.96-17.26 1401.81-17.26ZM1446.73-11.4L1446.73-11.4Q1446.73-14.06 1447.87-16.42 1449.02-18.77 1451.08-20.52 1453.15-22.27 1456.03-23.28 1458.91-24.29 1462.35-24.29L1462.35-24.29Q1465.96-24.29 1468.81-23.33 1471.65-22.36 1473.62-20.65 1475.58-18.95 1476.62-16.6 1477.66-14.26 1477.66-11.5L1477.66-11.5Q1477.66-8.84 1476.52-6.59 1475.39-4.35 1473.3-2.72 1471.21-1.1 1468.3-0.18 1465.38 0.73 1461.79 0.73L1461.79 0.73Q1458.4 0.73 1455.63-0.28 1452.85-1.29 1450.88-2.98 1448.9-4.66 1447.81-6.85 1446.73-9.03 1446.73-11.4ZM1450.56-1.12L1450.56-1.12Q1452.93 0.59 1455.8 1.51 1458.66 2.44 1462.28 2.44L1462.28 2.44Q1465.65 2.44 1468.75 1.53 1471.85 0.61 1474.22-1.17 1476.58-2.95 1478-5.55 1479.42-8.15 1479.42-11.5L1479.42-11.5Q1479.42-13.13 1478.96-14.81 1478.51-16.48 1477.7-18.02 1476.88-19.56 1475.71-20.89 1474.53-22.22 1473.09-23.14L1473.09-23.14Q1474.73-22.41 1476.08-21.22 1477.44-20.02 1478.39-18.49 1479.34-16.97 1479.87-15.19 1480.39-13.4 1480.39-11.5L1480.39-11.5Q1480.39-9.11 1479.71-7.07 1479.03-5.03 1477.82-3.38 1476.61-1.73 1474.94-0.46 1473.26 0.81 1471.26 1.65 1469.26 2.49 1467 2.93 1464.74 3.37 1462.4 3.37L1462.4 3.37Q1460.45 3.37 1458.66 3.06 1456.88 2.76 1455.36 2.19 1453.83 1.61 1452.61 0.78 1451.39-0.05 1450.56-1.12ZM1452.15-11.5L1452.15-11.5Q1452.15-9.62 1452.87-8.07 1453.59-6.52 1454.9-5.41 1456.22-4.3 1458.07-3.69 1459.91-3.08 1462.16-3.08L1462.16-3.08Q1464.43-3.08 1466.28-3.7 1468.14-4.32 1469.48-5.43 1470.82-6.54 1471.56-8.09 1472.29-9.64 1472.29-11.5L1472.29-11.5Q1472.29-13.33 1471.56-14.95 1470.82-16.58 1469.5-17.81 1468.19-19.04 1466.34-19.76 1464.5-20.48 1462.28-20.48L1462.28-20.48Q1459.96-20.48 1458.09-19.79 1456.22-19.09 1454.9-17.88 1453.59-16.67 1452.87-15.04 1452.15-13.4 1452.15-11.5ZM1453.86-11.4L1453.86-11.4Q1453.86-12.94 1454.47-14.29 1455.08-15.65 1456.19-16.64 1457.3-17.63 1458.85-18.2 1460.4-18.77 1462.28-18.77L1462.28-18.77Q1463.47-18.77 1464.6-18.52 1465.72-18.26 1466.67-17.77 1467.62-17.29 1468.36-16.59 1469.09-15.89 1469.53-15.01L1469.53-15.01Q1467.92-16.48 1466.17-17.16 1464.43-17.85 1462.23-17.85L1462.23-17.85Q1460.64-17.85 1459.3-17.33 1457.96-16.82 1456.96-15.94 1455.95-15.06 1455.39-13.89 1454.83-12.72 1454.83-11.4L1454.83-11.4Q1454.83-10.3 1455.1-9.35 1455.37-8.4 1456.02-7.58 1456.66-6.76 1457.74-6.1 1458.81-5.44 1460.42-4.93L1460.42-4.93Q1458.96-5.03 1457.75-5.55 1456.54-6.08 1455.67-6.93 1454.81-7.79 1454.33-8.94 1453.86-10.08 1453.86-11.4ZM1487.03 0L1487.03-3.66 1492.4-3.66 1492.4-19.41 1487.03-19.41 1487.03-23.56 1497.65-23.56 1497.65-19.87Q1498.41-20.8 1499.47-21.61 1500.53-22.41 1501.85-23.01 1503.17-23.61 1504.71-23.95 1506.25-24.29 1507.93-24.29L1507.93-24.29Q1510.47-24.29 1512.54-23.57 1514.62-22.85 1516.08-21.35 1517.55-19.85 1518.34-17.57 1519.14-15.28 1519.14-12.16L1519.14-12.16 1519.14-3.66 1524.51-3.66 1524.51 0 1509.74 0 1509.74-3.66 1513.89-3.66 1513.89-10.08Q1513.89-12.06 1513.7-13.61 1513.52-15.16 1513.18-16.04L1513.18-16.04Q1512.74-17.16 1512.07-17.94 1511.4-18.73 1510.55-19.21 1509.71-19.7 1508.71-19.92 1507.71-20.14 1506.59-20.14L1506.59-20.14Q1505.39-20.14 1504.11-19.7 1502.83-19.26 1501.62-18.47 1500.41-17.68 1499.37-16.6 1498.33-15.53 1497.65-14.28L1497.65-14.28 1497.65-3.66 1501.8-3.66 1501.8 0 1487.03 0ZM1520.89-5.13L1520.89-11.99Q1520.89-14.14 1520.56-15.98 1520.23-17.82 1519.58-19.3 1518.92-20.78 1517.95-21.85 1516.99-22.92 1515.72-23.56L1515.72-23.56Q1517.38-23.14 1518.55-22.16 1519.72-21.17 1520.45-19.65 1521.19-18.14 1521.53-16.16 1521.87-14.18 1521.87-11.82L1521.87-11.82 1521.87-5.13 1520.89-5.13ZM1499.41-5.13L1499.41-13.67Q1500.02-14.75 1500.86-15.63 1501.7-16.5 1502.69-17.13 1503.68-17.75 1504.77-18.09 1505.85-18.43 1506.93-18.43L1506.93-18.43Q1508.61-18.43 1509.66-17.8 1510.71-17.16 1511.2-16.19L1511.2-16.19Q1510.44-16.75 1509.43-17.14 1508.42-17.53 1506.88-17.53L1506.88-17.53Q1505.93-17.53 1504.95-17.18 1503.97-16.82 1503.1-16.24 1502.22-15.65 1501.51-14.89 1500.8-14.14 1500.39-13.35L1500.39-13.35 1500.39-5.13 1499.41-5.13ZM1488.5-16.77L1488.5-17.7 1491.38-17.7 1491.38-16.77 1488.5-16.77ZM1511.2 1.71L1526.26 1.71 1526.26-2.29 1527.24-2.29 1527.24 2.64 1511.2 2.64 1511.2 1.71ZM1488.5 1.71L1503.56 1.71 1503.56-2.29 1504.54-2.29 1504.54 2.64 1488.5 2.64 1488.5 1.71ZM1530.97-11.45L1530.97-11.45Q1530.97-13.72 1531.93-15.93 1532.88-18.14 1534.75-19.89 1536.61-21.63 1539.37-22.72 1542.13-23.8 1545.72-23.8L1545.72-23.8Q1546.87-23.8 1548.17-23.63 1549.48-23.46 1550.79-23.07 1552.09-22.68 1553.34-22.03 1554.58-21.39 1555.61-20.46L1555.61-20.46 1555.61-30.15 1550.24-30.15 1550.24-34.06 1560.86-34.06 1560.86-3.66 1565.01-3.66 1565.01 0 1555.61 0 1555.61-3.1Q1553.7-1.25 1551.02-0.26 1548.33 0.73 1545.18 0.73L1545.18 0.73Q1542.18 0.73 1539.59-0.06 1537-0.85 1535.09-2.39 1533.17-3.93 1532.07-6.2 1530.97-8.47 1530.97-11.45ZM1562.61-5.13L1562.61-32.81 1563.59-32.81 1563.59-5.13 1562.61-5.13ZM1551.7-27.51L1551.7-28.44 1554.58-28.44 1554.58-27.51 1551.7-27.51ZM1536.27-11.65L1536.27-11.65Q1536.27-9.67 1536.92-8.08 1537.57-6.49 1538.77-5.37 1539.98-4.25 1541.7-3.64 1543.43-3.03 1545.6-3.03L1545.6-3.03Q1546.75-3.03 1547.93-3.26 1549.11-3.49 1550.22-3.97 1551.34-4.44 1552.32-5.16 1553.31-5.88 1554.03-6.87 1554.75-7.86 1555.18-9.13 1555.61-10.4 1555.61-11.96L1555.61-11.96Q1555.61-13.7 1554.8-15.17 1554-16.65 1552.64-17.72 1551.29-18.8 1549.48-19.41 1547.67-20.02 1545.67-20.02L1545.67-20.02Q1543.72-20.02 1542.01-19.41 1540.3-18.8 1539.02-17.7 1537.74-16.6 1537-15.05 1536.27-13.5 1536.27-11.65ZM1537.98-11.65L1537.98-11.65Q1537.98-13.04 1538.53-14.23 1539.08-15.43 1540.08-16.33 1541.08-17.24 1542.51-17.75 1543.94-18.26 1545.67-18.26L1545.67-18.26Q1548.16-18.26 1549.87-17.53 1551.58-16.8 1552.19-15.7L1552.19-15.7Q1550.87-16.55 1549.22-16.94 1547.58-17.33 1545.67-17.33L1545.67-17.33Q1544.13-17.33 1542.9-16.88 1541.67-16.43 1540.8-15.65 1539.93-14.87 1539.46-13.81 1538.98-12.74 1538.98-11.55L1538.98-11.55Q1538.98-6.93 1544.18-4.76L1544.18-4.76Q1542.69-4.93 1541.55-5.54 1540.4-6.15 1539.6-7.07 1538.81-7.98 1538.4-9.16 1537.98-10.33 1537.98-11.65ZM1557.07 1.71L1566.77 1.71 1566.77-2.29 1567.74-2.29 1567.74 2.64 1557.07 2.64 1557.07 1.71ZM1534.12-1.05L1534.12-1.05Q1535.12-0.24 1536.39 0.4 1537.66 1.05 1539.1 1.5 1540.54 1.95 1542.09 2.2 1543.64 2.44 1545.21 2.44L1545.21 2.44Q1547.92 2.44 1550.27 1.77 1552.63 1.1 1554.46-0.1L1554.46-0.1 1554.46 1.03Q1552.63 2.12 1550.22 2.75 1547.82 3.37 1545.23 3.37L1545.23 3.37Q1541.28 3.37 1538.47 2.26 1535.66 1.15 1534.12-1.05Z" opacity="1" transform="matrix(1,0,0,1,0,0)" fill="#e8160b" class="slogan-text-1" data-fill-palette-color="secondary" id="text-1"></path></svg></g></svg></g></svg></g></svg></g><g transform="matrix(1,0,0,1,150.534359120913,0)"><svg viewBox="0 0 96.42888175817396 119.91156280809196" height="119.91156280809196" width="96.42888175817396"><g><svg xmlns="http://www.w3.org/2000/svg" xmlns:xlink="http://www.w3.org/1999/xlink" version="1.1" x="0" y="0" viewBox="5.7 1 38.6 48" enable-background="new 0 0 50 50" xml:space="preserve" height="119.91156280809196" width="96.42888175817396" class="icon-icon-0" data-fill-palette-color="accent" id="icon-0"><g fill="#ff908b" data-fill-palette-color="accent"><path d="M5.7 45.8C5.7 47.6 7.2 49 9 49h24.8v-6.3c0-2.3 1.9-4.2 4.2-4.2h6.3V11.5H5.7V45.8zM29.4 37.8h-5.5c-0.6 0-1-0.5-1-1 0-0.6 0.5-1 1-1h5.5c0.6 0 1 0.5 1 1C30.5 37.4 30 37.8 29.4 37.8zM38.1 37.8h-5.5c-0.6 0-1-0.5-1-1 0-0.6 0.5-1 1-1h5.5c0.6 0 1 0.5 1 1C39.1 37.4 38.7 37.8 38.1 37.8zM38.1 33.5h-8.7c-0.6 0-1-0.5-1-1 0-0.6 0.5-1 1-1h8.7c0.6 0 1 0.5 1 1C39.1 33 38.7 33.5 38.1 33.5zM23.9 28.7c-0.6 0-1-0.5-1-1 0-0.6 0.5-1 1-1h5.5c0.6 0 1 0.5 1 1 0 0.6-0.5 1-1 1H23.9zM38.1 28.7h-5.5c-0.6 0-1-0.5-1-1 0-0.6 0.5-1 1-1h5.5c0.6 0 1 0.5 1 1C39.1 28.2 38.7 28.7 38.1 28.7zM38.1 23.8h-8.7c-0.6 0-1-0.5-1-1 0-0.6 0.5-1 1-1h8.7c0.6 0 1 0.5 1 1C39.1 23.3 38.7 23.8 38.1 23.8zM32.6 16.9h5.5c0.6 0 1 0.5 1 1 0 0.6-0.5 1-1 1h-5.5c-0.6 0-1-0.5-1-1C31.6 17.3 32 16.9 32.6 16.9zM23.9 16.9h5.5c0.6 0 1 0.5 1 1 0 0.6-0.5 1-1 1h-5.5c-0.6 0-1-0.5-1-1C22.9 17.3 23.4 16.9 23.9 16.9zM11.9 16.9h8.8c0.6 0 1 0.5 1 1 0 0.6-0.5 1-1 1h-8.8c-0.6 0-1-0.5-1-1C10.9 17.3 11.3 16.9 11.9 16.9zM11.9 21.7h14.2c0.6 0 1 0.5 1 1 0 0.6-0.5 1-1 1H11.9c-0.6 0-1-0.5-1-1C10.9 22.2 11.3 21.7 11.9 21.7zM11.9 26.6h8.8c0.6 0 1 0.5 1 1 0 0.6-0.5 1-1 1h-8.8c-0.6 0-1-0.5-1-1C10.9 27 11.3 26.6 11.9 26.6zM11.9 31.4h14.2c0.6 0 1 0.5 1 1 0 0.6-0.5 1-1 1H11.9c-0.6 0-1-0.5-1-1C10.9 31.9 11.3 31.4 11.9 31.4zM11.9 35.8h8.8c0.6 0 1 0.5 1 1 0 0.6-0.5 1-1 1h-8.8c-0.6 0-1-0.5-1-1C10.9 36.2 11.3 35.8 11.9 35.8zM11.9 40.6h14.2c0.6 0 1 0.5 1 1 0 0.6-0.5 1-1 1H11.9c-0.6 0-1-0.5-1-1C10.9 41.1 11.3 40.6 11.9 40.6z" fill="#ff908b" data-fill-palette-color="accent"></path><path d="M41 3h-2.7v3.5c0 1.2-1 2.2-2.2 2.2-1.2 0-2.2-1-2.2-2.2V3h-6.8v3.5c0 1.2-1 2.2-2.2 2.2-1.2 0-2.2-1-2.2-2.2V3H16v3.5c0 1.2-1 2.2-2.2 2.2-1.2 0-2.2-1-2.2-2.2V3H9C7.2 3 5.7 4.5 5.7 6.2v4.3h38.6V6.2C44.3 4.5 42.8 3 41 3z" fill="#ff908b" data-fill-palette-color="accent"></path><path d="M13.8 7.7c0.6 0 1.2-0.5 1.2-1.2V2.2C15 1.5 14.5 1 13.8 1c-0.6 0-1.2 0.5-1.2 1.2v4.3C12.7 7.2 13.2 7.7 13.8 7.7z" fill="#ff908b" data-fill-palette-color="accent"></path><path d="M25 7.7c0.6 0 1.2-0.5 1.2-1.2V2.2C26.2 1.5 25.6 1 25 1c-0.6 0-1.2 0.5-1.2 1.2v4.3C23.8 7.2 24.4 7.7 25 7.7z" fill="#ff908b" data-fill-palette-color="accent"></path><path d="M36.2 7.7c0.6 0 1.2-0.5 1.2-1.2V2.2c0-0.6-0.5-1.2-1.2-1.2C35.5 1 35 1.5 35 2.2v4.3C35 7.2 35.5 7.7 36.2 7.7z" fill="#ff908b" data-fill-palette-color="accent"></path><path d="M34.7 42.7V49l9.5-9.5H38C36.2 39.5 34.7 40.9 34.7 42.7z" fill="#ff908b" data-fill-palette-color="accent"></path></g></svg></g></svg></g><g></g></svg></g><defs></defs></svg><rect width="395.52" height="241.4884723040221" fill="none" stroke="none" visibility="hidden"></rect></g></svg></g></svg>